<svg xmlns="http://www.w3.org/2000/svg" width="48" height="48" viewBox="0 0 48 48"><g transform="translate(-565 -431)"><path d="M24,0A24,24,0,1,1,0,24,24,24,0,0,1,24,0Z" transform="translate(565 431)" fill="#2a528e"/><g transform="translate(545.084 440.585)"><g transform="translate(31)"><path d="M37.8,0V3.4H34.4V6.8H31V29H49.691V23.789h3.4v-3.4h3.4V0Zm10.2,27.3H32.7V8.5h10.2v5.1h5.1Zm0-15.406h-3.4V8.5h.5l2.9,2.9Zm3.4,10.2h-1.7v-11.4L45.8,6.8H36.1V5.1H51.391Zm3.4-3.4h-1.7V3.4H39.5V1.7H54.789Z" transform="translate(-31)" fill="#fff"/></g></g></g></svg>