<?xml version="1.0" encoding="utf-8"?>
<!-- Generator: Adobe Illustrator 26.3.1, SVG Export Plug-In . SVG Version: 6.00 Build 0)  -->
<svg version="1.1" id="Layer_1" xmlns="http://www.w3.org/2000/svg" xmlns:xlink="http://www.w3.org/1999/xlink" x="0px" y="0px"
	 viewBox="0 0 250 230" style="enable-background:new 0 0 250 230;" xml:space="preserve">
<style type="text/css">
	.st0{fill:#FFFFFF;stroke:#5282F0;stroke-width:8.5119;stroke-miterlimit:10;}
	.st1{fill:#FC8D42;}
	.st2{fill:#FFFFFF;stroke:#5282F0;stroke-width:8.604;stroke-miterlimit:10;}
	.st3{fill:#FFFFFF;stroke:#FC8D42;stroke-width:8;stroke-miterlimit:10;}
	.st4{fill:#FFFFFF;stroke:#5282F0;stroke-width:8;stroke-miterlimit:10;}
	.st5{fill:none;stroke:#5282F0;stroke-width:5;stroke-linecap:round;stroke-miterlimit:10;}
	.st6{fill:none;stroke:#5282F0;stroke-width:5;stroke-linecap:round;stroke-miterlimit:10;stroke-dasharray:7.3343,7.4955;}
	
		.st7{fill:none;stroke:#5282F0;stroke-width:5;stroke-linecap:round;stroke-miterlimit:10;stroke-dasharray:9.0066,3.0022,6.0044,9.0066;}
	.st8{fill:none;stroke:#5282F0;stroke-width:5;stroke-linecap:round;stroke-miterlimit:10;stroke-dasharray:10.8329;}
	
		.st9{fill:none;stroke:#5282F0;stroke-width:5;stroke-linecap:round;stroke-miterlimit:10;stroke-dasharray:0.046,0.2313,0.0771,0.046;}
	.st10{fill:none;stroke:#5282F0;stroke-width:5;stroke-linecap:round;stroke-miterlimit:10;stroke-dasharray:30.312,13.9833;}
	.st11{fill:none;stroke:#5282F0;stroke-width:5;stroke-linecap:round;stroke-miterlimit:10;stroke-dasharray:24.838,8.2793;}
	.st12{fill:#FFFFFF;}
	.st13{fill:url(#SVGID_1_);}
	.st14{fill:#EE6C4D;}
	.st15{fill:url(#SVGID_00000052812645916270243310000014578028176249452457_);}
	.st16{fill:url(#SVGID_00000087391256090280641170000015614522547122472348_);}
	.st17{fill:url(#SVGID_00000093161838974414088870000003852449729343840438_);}
	.st18{fill:url(#SVGID_00000066479435923957957310000009189119428428054422_);}
	.st19{fill:url(#SVGID_00000145057665236241939600000006448112250046997175_);}
	.st20{fill:url(#SVGID_00000153698743753792795740000008831850508360061367_);}
	.st21{fill:url(#SVGID_00000005253996364350711030000001139531616618577044_);}
	.st22{fill:url(#SVGID_00000129905693354647586890000003574654485707665336_);}
	.st23{fill:url(#SVGID_00000071542542342600163840000001416189333796025241_);}
	.st24{fill:url(#SVGID_00000020399814895128189680000003243992641523818900_);}
	.st25{fill:url(#SVGID_00000018205419437470616670000007202426780709444498_);}
	.st26{fill:url(#SVGID_00000033349235822650315860000002518096016451548336_);}
	.st27{fill:url(#SVGID_00000043454611122908504140000016080040905125079988_);}
	.st28{fill:url(#SVGID_00000142897414603861803670000016352483699194033068_);}
	.st29{fill:url(#SVGID_00000176744716756171422050000010205176701721785249_);}
	.st30{fill:url(#SVGID_00000148661769528834515450000004216693408295006879_);}
	.st31{fill:url(#SVGID_00000133526479768347290040000001709052048111258273_);}
	.st32{fill:url(#SVGID_00000026842616530334362840000014178352544111243198_);}
	.st33{fill:url(#SVGID_00000142144305238463961030000001483108863511502747_);}
	.st34{fill:url(#SVGID_00000126322085811691816610000009248373778322268550_);}
	.st35{fill:url(#SVGID_00000169539393364567857530000008665637386453136551_);}
	.st36{fill:url(#SVGID_00000025407508381425050700000001428906276184223393_);}
	.st37{fill:url(#SVGID_00000088100974900647744550000011345227484804667276_);}
	.st38{fill:url(#SVGID_00000127741771629296589030000002823260460457665174_);}
	.st39{fill:url(#SVGID_00000074408701536559462960000007562575486309776031_);}
	.st40{fill:url(#SVGID_00000101083531286146596620000009492886838948926398_);}
	.st41{fill:url(#SVGID_00000160152344260618123320000002201935707221919905_);}
	.st42{fill:url(#SVGID_00000035510971695837371940000001115772014105240718_);}
	.st43{fill:url(#SVGID_00000078044046285618912840000010251767014797723285_);}
	.st44{fill:url(#SVGID_00000068642897507075517660000000174386975246444440_);}
	.st45{fill:url(#SVGID_00000020399121090340085460000000810989830734929306_);}
	.st46{fill:url(#SVGID_00000155117483760334202550000013078808390001220015_);}
	.st47{fill:url(#SVGID_00000024700391311999250950000018171631536026135969_);}
	.st48{fill:url(#SVGID_00000042697571632118053060000011742336176582207628_);}
	.st49{fill:url(#SVGID_00000013915326280690528270000002001431570031821204_);}
	.st50{fill:url(#SVGID_00000070119940480300811940000003838369987396359839_);}
	.st51{fill:url(#SVGID_00000076569170690903777720000002452392260981266879_);}
	.st52{fill:url(#XMLID_00000151519690270218191590000015482514663402435480_);}
	.st53{fill:url(#SVGID_00000069395685947284692860000010053495655697031328_);}
	.st54{fill:url(#SVGID_00000140705636259017149140000007105524890417969079_);}
	.st55{fill:url(#SVGID_00000176722945297002674620000012780304266682536356_);}
	.st56{fill:url(#SVGID_00000168086974890286709910000006412349947246521998_);}
	.st57{fill:url(#SVGID_00000077312774058138759920000014224155349432253594_);}
	.st58{fill:url(#SVGID_00000021827197275224944450000005814398551382447755_);}
	.st59{fill:url(#SVGID_00000075127131255673983680000004306289872210194335_);}
	.st60{fill:url(#SVGID_00000003797661638484265820000008375746805133825172_);}
	.st61{fill:url(#SVGID_00000069374169490824391740000000153542654911019151_);}
	.st62{fill:url(#SVGID_00000162346376222530419980000010210898010683671988_);}
	.st63{fill:url(#SVGID_00000138555656379892310590000005788667373302762912_);}
	.st64{fill:url(#SVGID_00000178206276950088693650000007927976808320474768_);}
	.st65{fill:url(#SVGID_00000103254062932245459040000016492893752747243437_);}
	.st66{fill:url(#SVGID_00000030460530051260100780000012832946548304328380_);}
	.st67{fill:url(#SVGID_00000110469736234881018980000007815110272079883153_);}
	.st68{fill:url(#SVGID_00000159454565242470768350000004765997272692506536_);}
	.st69{fill:url(#SVGID_00000087388273315596927490000007955138230857899142_);}
	.st70{fill:url(#SVGID_00000112592737175068541910000003535243524454017180_);}
	.st71{fill:url(#SVGID_00000085223481827737464490000017639146821697421733_);}
	.st72{fill:url(#SVGID_00000005226951173248102570000016016959013664191128_);}
	.st73{fill:url(#SVGID_00000153664819894913955650000005892948685732578481_);}
	.st74{fill:url(#SVGID_00000112596137828221221730000008316355228908941748_);}
	.st75{fill:url(#SVGID_00000133491842784627349540000001539100102598029470_);}
	.st76{fill:url(#SVGID_00000049220745717657893760000007511466809182544565_);}
	.st77{fill:url(#SVGID_00000143574778625832555400000011728493706456725657_);}
	.st78{fill:url(#SVGID_00000133525193702095669460000003691593178818163865_);}
	.st79{fill:url(#SVGID_00000168834449258253770070000004068583499136227743_);}
	.st80{fill:#D0BB7A;}
	.st81{fill:#EDEDD1;}
	.st82{fill:#B67922;}
	.st83{fill:#723618;}
	.st84{fill:#DCA224;}
	.st85{fill:#2552A3;}
	.st86{fill:#EB4421;}
	.st87{fill:#C2D5E4;}
	.st88{fill:#CFBB79;}
	.st89{fill:#EEEDD2;}
	.st90{fill:#B1D27B;}
	.st91{fill:#ECF4CF;}
	.st92{fill:#B67A22;}
	.st93{fill:#9CBB5D;}
	.st94{fill:#7AA032;}
	.st95{fill:#733718;}
	.st96{fill:#62BCEB;}
	.st97{opacity:0.15;fill:#080909;}
	.st98{fill:#545554;}
	.st99{fill:#CCCCCB;}
	.st100{fill:#B3B1B0;}
	.st101{fill:#272727;}
	.st102{fill:#868686;}
	.st103{fill:#EDCDAA;}
	.st104{opacity:0.05;fill:#080909;}
	.st105{fill:#B8D3E8;}
	.st106{fill:#EB521C;}
	.st107{fill:#115DAC;}
	.st108{fill:none;stroke:#5282F0;stroke-width:7;stroke-linecap:round;stroke-linejoin:round;stroke-miterlimit:10;}
	.st109{fill:#0A4E8B;}
	.st110{fill:url(#SVGID_00000071533014612354021560000011070388340679700156_);stroke:#BB8623;stroke-width:1.4938;}
	.st111{fill:url(#SVGID_00000082358285814215507480000005223624707363555245_);stroke:#BB8623;stroke-width:1.4938;}
	.st112{fill:#FBF19F;}
	.st113{fill:url(#SVGID_00000058554064046342454860000003889160795993672868_);stroke:#BB8623;stroke-width:1.4938;}
	.st114{fill:url(#SVGID_00000072252223168424100550000007251978396222213771_);stroke:#BB8623;stroke-width:1.4938;}
	.st115{fill:url(#SVGID_00000049193083950540527240000014899098048371273869_);}
	.st116{fill:url(#SVGID_00000085937349407137554900000001906628781410303621_);stroke:#BB8623;stroke-width:1.4938;}
	.st117{fill:url(#SVGID_00000130642964776507062700000003241798934458409115_);stroke:#BB8623;stroke-width:1.4938;}
	.st118{fill:url(#SVGID_00000088110322640110263010000017747586591769201066_);}
	.st119{fill:url(#SVGID_00000128480913749417241860000014602356615448495028_);stroke:#BB8623;stroke-width:1.4938;}
	.st120{fill:url(#SVGID_00000065063526975544101730000010973238998523582344_);stroke:#BB8623;stroke-width:1.4938;}
	.st121{fill:#999999;stroke:#545454;stroke-width:0.6247;}
	.st122{fill:#CCCCCC;stroke:#545454;stroke-width:0.6247;}
	.st123{fill:#0F374E;}
	.st124{fill:url(#SVGID_00000176038409691102223360000011714707888405366400_);}
	.st125{fill:#C2C1C0;stroke:#545454;stroke-width:0.6247;}
	.st126{fill:#F1F1F2;stroke:#545454;stroke-width:0.6247;}
	.st127{fill:#DBDBDB;}
	.st128{fill:#E5EFF9;}
	.st129{fill:#397393;}
	.st130{opacity:0.34;fill:#F1F1F2;}
	.st131{fill:none;stroke:#FC8D42;stroke-width:7;stroke-linecap:round;stroke-linejoin:round;stroke-miterlimit:10;}
	.st132{fill:none;stroke:#5282F0;stroke-width:7.7204;stroke-linecap:round;stroke-linejoin:round;stroke-miterlimit:10;}
	.st133{fill:none;stroke:#FC8D42;stroke-width:7.7204;stroke-linecap:round;stroke-linejoin:round;stroke-miterlimit:10;}
	.st134{fill:#5282F0;}
	.st135{fill:url(#SVGID_00000037651650518241829200000017689463368602989220_);}
	.st136{fill:url(#SVGID_00000051355676556484876680000017006254495298525103_);}
	.st137{fill:url(#SVGID_00000162340661718431627670000012996178565147951249_);}
	.st138{fill:#5282F0;stroke:#5282F0;stroke-width:1.75;stroke-miterlimit:10;}
	.st139{fill:url(#SVGID_00000091725308885273666990000009042076574780268418_);}
	.st140{fill:url(#SVGID_00000004526386222926479840000010834379193874176650_);}
	.st141{fill:url(#SVGID_00000168099724872051341960000006965500658017816462_);}
	.st142{fill:url(#SVGID_00000067214531398968611280000013993899186189093271_);}
	.st143{fill:url(#SVGID_00000054958377381933571620000007011477496263683736_);}
	.st144{fill:#2A528E;}
	.st145{fill:#FFFFFF;stroke:#5282F0;stroke-width:7;stroke-miterlimit:10;}
	.st146{fill:none;stroke:#5282F0;stroke-width:7;stroke-miterlimit:10;}
	.st147{fill:#508AE1;}
	.st148{fill:#FCA261;}
	.st149{fill:#E8823D;}
	.st150{fill:#5FA2F2;}
	.st151{fill:#7CBEFF;}
	.st152{fill:none;stroke:#5282F0;stroke-width:6;stroke-miterlimit:10;}
	.st153{clip-path:url(#SVGID_00000160896443117508156230000010521360233631578799_);fill:#FFFFFF;}
	.st154{clip-path:url(#SVGID_00000160896443117508156230000010521360233631578799_);}
	.st155{fill:#E49A61;}
	.st156{fill:#C6C6C6;}
	.st157{fill:#E2E2E2;}
	.st158{fill:#FDDC85;}
	.st159{fill:#FFBD66;}
	.st160{fill:#7A8E9B;}
	.st161{fill:#79CCB8;}
	.st162{fill:#3DAA9D;}
	.st163{fill:#525C6B;}
	.st164{fill:#DB5743;}
	.st165{fill:#F1BB6B;}
	.st166{fill:#F87670;}
	.st167{fill:#59C5EF;}
	.st168{fill:#2BA0BF;}
	.st169{clip-path:url(#SVGID_00000160896443117508156230000010521360233631578799_);fill:#F87670;}
	.st170{fill:#484751;}
	.st171{fill:none;stroke:#484751;stroke-width:2.6322;stroke-linecap:square;stroke-miterlimit:10;}
	.st172{fill:none;stroke:#484751;stroke-width:2.6322;stroke-miterlimit:10;}
	.st173{fill:none;stroke:#5282F0;stroke-width:6.8368;stroke-linecap:round;stroke-linejoin:round;stroke-miterlimit:10;}
	.st174{fill:none;stroke:#FC8D42;stroke-width:6.8368;stroke-linecap:round;stroke-linejoin:round;stroke-miterlimit:10;}
	.st175{fill:none;stroke:#484751;stroke-width:2.6322;stroke-linecap:square;stroke-linejoin:round;stroke-miterlimit:10;}
	.st176{fill:#8DDEF1;}
	.st177{fill:#556DD3;}
	.st178{fill:#F8B55B;}
	.st179{fill:#769AFF;}
	.st180{fill:#769AFE;}
	.st181{fill:none;stroke:#5282F0;stroke-width:7.0735;stroke-linecap:round;stroke-linejoin:round;stroke-miterlimit:10;}
	.st182{fill:none;stroke:#5282F0;stroke-width:6.7816;stroke-linecap:round;stroke-linejoin:round;stroke-miterlimit:10;}
</style>
<path class="st134" d="M137.72,209.97c0.7,1.3,0.3,2.9-1,3.6c-0.4,0.2-0.9,0.3-1.3,0.3l-11.2-0.1l-11.2-0.1c-1.5,0-2.6-1.2-2.6-2.6
	c0-0.5,0.1-1,0.4-1.4l5.7-9.7l5.7-9.7c0.7-1.3,2.3-1.7,3.6-1c0.4,0.2,0.7,0.6,1,1l5.5,9.8L137.72,209.97z"/>
<g>
	
		<rect x="121.93" y="86.09" transform="matrix(5.410415e-03 -1 1 5.410415e-03 -52.3311 299.5718)" class="st134" width="5" height="180"/>
	<path class="st134" d="M35.52,170.94l56.5,0.3c2.8,0,5,2.3,5,5l0,0c0,2.8-2.3,5-5,5l-56.5-0.3c-2.8,0-5-2.3-5-5l0,0
		C30.52,173.14,32.72,170.94,35.52,170.94z"/>
	<path class="st134" d="M157.82,170.85l56.3,0.6c2.7,0,4.9,2.3,4.9,5l0,0c0,2.7-2.3,4.9-5,4.9l-56.3-0.6c-2.7,0-4.9-2.3-4.9-5l0,0
		C152.82,172.95,155.02,170.75,157.82,170.85z"/>
</g>
<g>
	<ellipse class="st145" cx="67.38" cy="131.63" rx="30.7" ry="25.87"/>
	<ellipse class="st145" cx="67.38" cy="106.77" rx="30.7" ry="25.87"/>
	<line class="st146" x1="36.68" y1="107.62" x2="36.68" y2="131.28"/>
	<line class="st146" x1="98.08" y1="107.62" x2="98.08" y2="131.28"/>
	<path class="st1" d="M68.93,120.46h-2.79v-2.09c-3.13-0.17-5.58-0.85-7.36-2.03s-2.67-2.83-2.71-4.86h5.71
		c0.08,0.85,0.51,1.58,1.31,2.15c0.97,0.62,2.03,0.96,3.09,1.02v-6.39l-2.12-0.4c-2.41-0.45-4.23-1.24-5.5-2.37s-1.9-2.54-1.9-4.24
		c0-1.98,0.85-3.62,2.5-4.86c1.65-1.24,4.02-1.92,6.98-2.15v-2.26h2.79v2.26c2.79,0.23,4.99,0.9,6.68,2.15s2.5,2.83,2.54,4.69h-5.5
		c-0.04-0.79-0.38-1.47-1.06-2.03c-0.8-0.62-1.69-0.96-2.62-1.02v6.1l2.12,0.34c5.08,0.9,7.66,3.11,7.66,6.67
		c0,2.09-0.85,3.73-2.54,4.97c-1.69,1.24-4.1,1.98-7.23,2.2L68.93,120.46z M62.42,100.85c0,1.47,1.23,2.43,3.72,2.83v-5.65
		c-0.93,0-1.86,0.28-2.67,0.85C62.75,99.44,62.42,100.06,62.42,100.85z M73.08,111.65c-0.04-0.85-0.42-1.58-1.02-1.92
		c-0.97-0.62-2.03-0.96-3.13-1.07v5.99c1.06,0,2.07-0.28,3.05-0.9C72.74,113.23,73.08,112.55,73.08,111.65z"/>
</g>
<g>
	<g>
		<ellipse class="st145" cx="177.73" cy="131.63" rx="30.7" ry="25.87"/>
		<line class="st146" x1="147.02" y1="107.62" x2="147.02" y2="131.28"/>
		<line class="st146" x1="208.43" y1="107.62" x2="208.43" y2="131.28"/>
	</g>
	<g>
		<ellipse class="st145" cx="177.73" cy="105.53" rx="30.7" ry="25.87"/>
		<line class="st146" x1="147.02" y1="81.52" x2="147.02" y2="105.19"/>
		<line class="st146" x1="208.43" y1="81.52" x2="208.43" y2="105.19"/>
	</g>
	<g>
		<ellipse class="st145" cx="177.73" cy="79.64" rx="30.7" ry="25.87"/>
		<line class="st146" x1="147.02" y1="55.63" x2="147.02" y2="79.3"/>
		<line class="st146" x1="208.43" y1="55.63" x2="208.43" y2="79.3"/>
	</g>
	<ellipse class="st145" cx="177.73" cy="54.78" rx="30.7" ry="25.87"/>
	<path class="st1" d="M179.28,68.47h-2.79v-2.09c-3.13-0.17-5.58-0.85-7.36-2.03c-1.78-1.19-2.67-2.83-2.71-4.86h5.71
		c0.08,0.85,0.51,1.58,1.31,2.15c0.97,0.62,2.03,0.96,3.09,1.02v-6.39l-2.12-0.4c-2.41-0.45-4.23-1.24-5.5-2.37
		c-1.27-1.13-1.9-2.54-1.9-4.24c0-1.98,0.85-3.62,2.5-4.86c1.65-1.24,4.02-1.92,6.98-2.15v-2.26h2.79v2.26
		c2.79,0.23,4.99,0.9,6.68,2.15c1.69,1.24,2.5,2.83,2.54,4.69H183c-0.04-0.79-0.38-1.47-1.06-2.03c-0.8-0.62-1.69-0.96-2.62-1.02
		v6.1l2.12,0.34c5.08,0.9,7.66,3.11,7.66,6.67c0,2.09-0.85,3.73-2.54,4.97c-1.69,1.24-4.1,1.98-7.23,2.2L179.28,68.47z
		 M172.76,48.87c0,1.47,1.23,2.43,3.72,2.83v-5.65c-0.93,0-1.86,0.28-2.67,0.85C173.1,47.45,172.76,48.07,172.76,48.87z
		 M183.42,59.66c-0.04-0.85-0.42-1.58-1.02-1.92c-0.97-0.62-2.03-0.96-3.13-1.07v5.99c1.06,0,2.07-0.28,3.05-0.9
		C183.08,61.24,183.42,60.56,183.42,59.66z"/>
</g>
</svg>
