<svg xmlns="http://www.w3.org/2000/svg" width="48" height="48" viewBox="0 0 48 48"><g transform="translate(-565 -619)"><path d="M24,0A24,24,0,1,1,0,24,24,24,0,0,1,24,0Z" transform="translate(565 619)" fill="#2a528e"/><g transform="translate(573 627)"><path d="M15,1.53V1a1,1,0,0,1,2,0v.53C25.067,2,32,8.227,32,16.5a1,1,0,0,1-1.414.91c-4.493-2.042-7.409.369-7.83.751a.992.992,0,0,1-1.376.125c-.081-.065-.094-.1-.309-.266A7.969,7.969,0,0,0,17,16.547V28.5a3.5,3.5,0,1,1-7,0,1,1,0,1,1,2,0,1.5,1.5,0,0,0,3,0V16.547a7.943,7.943,0,0,0-4.1,1.492c-.193.152-.2.176-.274.239a.991.991,0,0,1-1.386-.116c-.433-.392-3.347-2.79-7.831-.752A1,1,0,0,1,0,16.5C0,8.226,6.934,2,15,1.53Zm5.96,14.084c-.24-5.546-1.528-8.526-2.625-10.078a5.16,5.16,0,0,0-2.336-2A5.066,5.066,0,0,0,13.8,5.35C12.644,6.892,11.286,9.9,11.04,15.614a11.576,11.576,0,0,1,9.921,0Zm8.95-.59A13.373,13.373,0,0,0,19.644,3.947C22.08,7.024,22.8,11.7,22.962,15.624A9.092,9.092,0,0,1,29.91,15.024Zm-20.873.6c.158-3.922.883-8.6,3.319-11.677A13.374,13.374,0,0,0,2.09,15.024,9.093,9.093,0,0,1,9.037,15.624Z" transform="translate(0 0)" fill="#fff"/></g></g></svg>