<svg xmlns="http://www.w3.org/2000/svg" width="54.475" height="62.884" viewBox="0 0 54.475 62.884">
  <g id="Layer_2" data-name="Layer 2" transform="translate(0)">
    <g id="Layer_1" data-name="Layer 1" transform="translate(0)">
      <path id="Path_1851" data-name="Path 1851" d="M35.837,96.738a36.221,36.221,0,0,0-3.876-1.707c-.975-.408-2.186-.911-2.405-1.012a2.257,2.257,0,0,0-3.056.87,30.661,30.661,0,0,1-3.036,4.655,2.5,2.5,0,0,0-1.177,2.223c.02.449.081,1.808,2.554,2.985a11.3,11.3,0,0,0,2.574.85,11.564,11.564,0,0,0,1.768.223h.449a7.964,7.964,0,0,0,4.8-1.474c2.024-1.491,3.036-3.07,2.985-4.7A3.67,3.67,0,0,0,35.837,96.738Zm-2.989,5.5h0a5.525,5.525,0,0,1-3.576.948,8.826,8.826,0,0,1-1.349-.172,8.514,8.514,0,0,1-1.967-.644,3.06,3.06,0,0,1-1.012-.675c1.073-.769,3.036-4.112,3.67-5.222.388.179,1.09.472,2.321.985s3.036,1.275,3.437,1.474a1.039,1.039,0,0,1,.381.776C34.781,100.411,34.1,101.308,32.848,102.233Z" transform="translate(-14.76 -62.118)" fill="#fc8d42"/>
      <path id="Path_1852" data-name="Path 1852" d="M63.907,14.775A7.387,7.387,0,1,0,56.52,7.387a7.387,7.387,0,0,0,7.387,7.387Zm0-12.144a4.753,4.753,0,1,1-4.753,4.756,4.753,4.753,0,0,1,4.753-4.756Z" transform="translate(-37.447)" fill="#fc8d42"/>
      <path id="Path_1853" data-name="Path 1853" d="M53.779,73.4a1.316,1.316,0,0,0-1.791.513c-.941,1.687-3.316,1.3-4.554.951A18.507,18.507,0,0,0,45.5,67.516a17.258,17.258,0,0,0-2.624-3.633A19.184,19.184,0,0,0,36.758,59.5a12.819,12.819,0,0,0-2.769-.891,7.887,7.887,0,0,0-15-.314l-.108.034a31.327,31.327,0,0,0-6.666,3.292,29.031,29.031,0,0,0-3.856-1.255C6.823,60,4.948,59.754,4.1,61.039c-.978,1.5-.26,5.438.8,7.887a3.63,3.63,0,0,1-1.653.368,3.269,3.269,0,0,0-2.436.87,3.12,3.12,0,0,0-.833,2.344c.017,1.235,0,2.493,0,3.711v2.975A3.775,3.775,0,0,0,.471,81.16a2.7,2.7,0,0,0,2.075,1.3,4.763,4.763,0,0,1,2.29.9c.28.317,1.231,1.609,1.434,1.906A15.694,15.694,0,0,0,12.45,90.6c1.241.675,2.3,3.677,2.581,6.106h0a1.319,1.319,0,0,0,1.319,1.3H22.2a1.316,1.316,0,0,0,1.289-1.032l.037-.182a22.438,22.438,0,0,1,.8-3.2l.078-.078c.425,0,1.255.024,1.946.047a42.564,42.564,0,0,0,5.981-.051,21.471,21.471,0,0,0,.654,3.582,1.312,1.312,0,0,0,1.258.918h6.22a1.312,1.312,0,0,0,1.289-1.042,3.556,3.556,0,0,0,.061-.449,24.457,24.457,0,0,1,.675-4.358,9.138,9.138,0,0,1,1.039-1.936c.179-.283.364-.57.543-.87a26.27,26.27,0,0,0,3.353-11.79,10.58,10.58,0,0,0,1.417.206q.3.02.6.02a5.227,5.227,0,0,0,4.854-2.608A1.322,1.322,0,0,0,53.779,73.4ZM26.456,55.622a5.259,5.259,0,0,1,5.239,5.252q0,.223-.02.445a21.252,21.252,0,0,0-5.4-.675,19.977,19.977,0,0,0-5.06.627c0-.132,0-.26,0-.391a5.259,5.259,0,0,1,5.222-5.259ZM6.28,62.611h0a14.542,14.542,0,0,1,3.711.945c-.543.6-1.059,1.251-1.572,1.872s-.934,1.09-1.413,1.609A13.03,13.03,0,0,1,6.28,62.611ZM41.814,88.018c-.152.26-.337.516-.5.789a11.132,11.132,0,0,0-1.326,2.483,30.861,30.861,0,0,0-.715,4.048h-3.98c-.121-.337-.28-1.687-.412-2.6a1.94,1.94,0,0,0-.87-1.589,2.25,2.25,0,0,0-1.44-.337,1.309,1.309,0,0,0-.2.03,34.9,34.9,0,0,1-5.937.1c-2.4-.084-2.854-.1-3.34.25a3.974,3.974,0,0,0-.9.813c-.253.337-.513.961-1.073,3.323H17.5c-.2-.675-.523-2.257-.914-3.252a6.957,6.957,0,0,0-2.9-3.819,13.03,13.03,0,0,1-5.2-4.429l-.02-.024a20.03,20.03,0,0,0-1.973-2.5,7.381,7.381,0,0,0-3.6-1.467.553.553,0,0,1-.142-.034,1.224,1.224,0,0,1-.115-.634c0-.982,0-1.983,0-2.948V72.464c0-.337.071-.388.071-.388a2.971,2.971,0,0,1,.53-.027h.017a6.089,6.089,0,0,0,3.647-1.2,20.9,20.9,0,0,0,3.542-3.677,17.283,17.283,0,0,1,3.292-3.373,27.324,27.324,0,0,1,4.827-2.53,7.907,7.907,0,0,0,.091.887,9.846,9.846,0,0,0-1.4.745,1.248,1.248,0,1,0,1.417,2.054,14.322,14.322,0,0,1,7.607-1.818,18.618,18.618,0,0,1,5.843.921,11.877,11.877,0,0,1,2.145.928,1.225,1.225,0,0,0,.654.189,1.248,1.248,0,0,0,.675-2.307,10.5,10.5,0,0,0-1.349-.675,8.009,8.009,0,0,0,.091-.8,11.44,11.44,0,0,1,1.37.509,16.529,16.529,0,0,1,5.266,3.785,14.805,14.805,0,0,1,2.247,3.076,16.634,16.634,0,0,1,1.687,7.06h0A24.724,24.724,0,0,1,41.814,88.018Z" transform="translate(0.022 -35.122)" fill="#fc8d42"/>
    </g>
  </g>
</svg>
