<svg id="Layer_2" data-name="Layer 2" xmlns="http://www.w3.org/2000/svg" width="52.704" height="62.885" viewBox="0 0 52.704 62.885">
  <g id="Layer_1" data-name="Layer 1" transform="translate(0 0)">
    <path id="Path_1848" data-name="Path 1848" d="M17.981,53.52A23.656,23.656,0,0,1,25.365,7.786l-2.837,2.835a1.356,1.356,0,0,0,1.918,1.916l5.334-5.32a1.358,1.358,0,0,0,0-1.916L24.862.387A1.358,1.358,0,0,0,22.937,2.3l2.775,2.772A26.362,26.362,0,0,0,17.017,56.05a1.3,1.3,0,0,0,.482.09,1.355,1.355,0,0,0,.482-2.62Z" transform="translate(-0.072 0.012)" fill="#fc8d42"/>
    <path id="Path_1849" data-name="Path 1849" d="M95.352,43.283a26.374,26.374,0,0,0-18.2-25.07,1.352,1.352,0,1,0-.84,2.571,23.656,23.656,0,0,1-6.3,46.13l2.872-2.873a1.353,1.353,0,1,0-1.914-1.913L65.595,67.5a1.358,1.358,0,0,0,0,1.916l4.966,4.963a1.356,1.356,0,0,0,1.914-1.916l-2.837-2.821A26.4,26.4,0,0,0,95.352,43.283Z" transform="translate(-42.648 -11.849)" fill="#fc8d42"/>
    <path id="Path_1850" data-name="Path 1850" d="M60.623,76.415c0,.454-.163.791-.021,1.006a.631.631,0,0,0,.631.326.621.621,0,0,0,.694-.4,3.815,3.815,0,0,0,.1-1.273V74.515a7.207,7.207,0,0,0,3.673-1.11A6.267,6.267,0,0,0,68.038,71a6.569,6.569,0,0,0,.8-3.163,6.152,6.152,0,0,0-.5-2.483,5.511,5.511,0,0,0-1.415-1.946,6.031,6.031,0,0,0-1.96-1.2,21.785,21.785,0,0,0-2.938-.919V55.131A3.149,3.149,0,0,1,64.4,57.59a1.854,1.854,0,0,0,1.887,1.571,1.793,1.793,0,0,0,1.3-.562,1.751,1.751,0,0,0,.541-1.283,3.572,3.572,0,0,0-.347-1.467,6.357,6.357,0,0,0-1.04-1.554,5.389,5.389,0,0,0-1.991-1.481,9.413,9.413,0,0,0-2.729-.652V50.574c0-.808-.069-1.214-.694-1.214s-.694.416-.694,1.245v1.571c-2.428.177-3.843.808-4.921,1.9a5.754,5.754,0,0,0-1.734,4.162,5.673,5.673,0,0,0,.77,3.2,6.243,6.243,0,0,0,2.369,1.918,18.784,18.784,0,0,0,3.524,1.221v6.891a4.956,4.956,0,0,1-1.828-.815,4.058,4.058,0,0,1-1.013-1.179,16.566,16.566,0,0,1-.766-1.855,1.658,1.658,0,0,0-.666-.874,2,2,0,0,0-1.141-.312A1.869,1.869,0,0,0,53.832,67a1.79,1.79,0,0,0-.562,1.308,5.077,5.077,0,0,0,.413,1.963,6.392,6.392,0,0,0,1.28,1.928,8.393,8.393,0,0,0,2.4,1.547,9.364,9.364,0,0,0,3.264.8ZM62.01,65.137a6.406,6.406,0,0,1,2.345,1.193,2.528,2.528,0,0,1,.8,1.98,3.045,3.045,0,0,1-.825,2.1,3.947,3.947,0,0,1-2.32,1.2ZM58.4,59.64a2.362,2.362,0,0,1-.77-1.772,2.4,2.4,0,0,1,.874-1.835,4.661,4.661,0,0,1,2.116-.978v5.684a6.041,6.041,0,0,1-2.22-1.1Z" transform="translate(-34.838 -32.258)" fill="#fc8d42"/>
  </g>
</svg>
