<svg xmlns="http://www.w3.org/2000/svg" width="48" height="48" viewBox="0 0 48 48"><g transform="translate(-1185 -901)"><g transform="translate(274 89)"><circle cx="24" cy="24" r="24" transform="translate(911 812)" fill="#2a528e"/><g transform="translate(863.859 823)"><path d="M80.252,5.488,75.273.777A2.829,2.829,0,0,0,73.321,0H63.84A2.844,2.844,0,0,0,61,2.84V23.6a2.844,2.844,0,0,0,2.84,2.84H78.3a2.844,2.844,0,0,0,2.84-2.84V7.551a2.852,2.852,0,0,0-.888-2.063Zm-1.5.709H74.892a.259.259,0,0,1-.258-.258V2.305ZM78.3,24.892H63.84A1.293,1.293,0,0,1,62.549,23.6V2.84A1.293,1.293,0,0,1,63.84,1.549h9.244v4.39a1.81,1.81,0,0,0,1.807,1.807h4.7V23.6A1.293,1.293,0,0,1,78.3,24.892Z" transform="translate(0 0)" fill="#fff"/><path d="M140.136,200H128.775a.775.775,0,1,0,0,1.549h11.361a.775.775,0,0,0,0-1.549Z" transform="translate(-63.54 -189.671)" fill="#fff"/><path d="M140.136,280H128.775a.775.775,0,1,0,0,1.549h11.361a.775.775,0,1,0,0-1.549Z" transform="translate(-63.54 -265.54)" fill="#fff"/><path d="M132.53,360h-3.755a.775.775,0,1,0,0,1.549h3.755a.775.775,0,1,0,0-1.549Z" transform="translate(-63.54 -341.409)" fill="#fff"/></g></g></g></svg>