<svg xmlns="http://www.w3.org/2000/svg" width="48" height="48" viewBox="0 0 48 48"><g transform="translate(-1288 -431)"><circle cx="24" cy="24" r="24" transform="translate(1288 431)" fill="#2a528e"/><g transform="translate(1298 440.585)"><g transform="translate(0)"><path d="M23.9,18.1a13.946,13.946,0,0,0-5.32-3.337,8.094,8.094,0,1,0-9.159,0A14.022,14.022,0,0,0,0,28H2.187a11.812,11.812,0,1,1,23.625,0H28A13.909,13.909,0,0,0,23.9,18.1ZM14,14a5.906,5.906,0,1,1,5.906-5.906A5.913,5.913,0,0,1,14,14Z" transform="translate(0)" fill="#fff"/></g></g></g></svg>