<svg xmlns="http://www.w3.org/2000/svg" width="48" height="62" viewBox="0 0 48 62">
  <g id="project" transform="translate(-8 -1)">
    <path id="Path_545" data-name="Path 545" d="M55,1H9A1,1,0,0,0,8,2V62a1,1,0,0,0,1,1H43a.994.994,0,0,0,.708-.294l12-12A.994.994,0,0,0,56,50V2A1,1,0,0,0,55,1ZM42,50V61H10V3H54V49H43A1,1,0,0,0,42,50Zm10.586,1L44,59.586V51Z" fill="#4d6581"/>
    <path id="Path_546" data-name="Path 546" d="M24.9,5.447l-1.789-.895L22.43,5.9a7.032,7.032,0,1,0,1.611,1.251ZM24,12a5,5,0,1,1-5-5,4.947,4.947,0,0,1,2.527.71l-2.7,5.395L16.8,10.4l-1.6,1.2,3,4a1,1,0,0,0,.8.4c.03,0,.06,0,.09,0a1,1,0,0,0,.805-.549l3.169-6.339A4.963,4.963,0,0,1,24,12Z" fill="#4d6581"/>
    <path id="Path_547" data-name="Path 547" d="M24.9,21.447l-1.789-.9L22.43,21.9a7.032,7.032,0,1,0,1.611,1.251ZM24,28a5,5,0,1,1-5-5,4.947,4.947,0,0,1,2.527.71l-2.7,5.4L16.8,26.4l-1.6,1.2,3,4a1,1,0,0,0,.8.4c.03,0,.06,0,.09,0a1,1,0,0,0,.805-.549l3.169-6.339A4.963,4.963,0,0,1,24,28Z" fill="#4d6581"/>
    <path id="Path_548" data-name="Path 548" d="M24.9,37.447l-1.789-.9L22.43,37.9a7.032,7.032,0,1,0,1.611,1.251ZM24,44a5,5,0,1,1-5-5,4.947,4.947,0,0,1,2.527.71l-2.7,5.4L16.8,42.4l-1.6,1.2,3,4a1,1,0,0,0,.8.4c.03,0,.06,0,.09,0a1,1,0,0,0,.805-.549l3.169-6.339A4.963,4.963,0,0,1,24,44Z" fill="#4d6581"/>
    <path id="Path_549" data-name="Path 549" d="M28,17H52v2H28Z" fill="#4d6581"/>
    <path id="Path_550" data-name="Path 550" d="M28,13H52v2H28Z" fill="#4d6581"/>
    <path id="Path_551" data-name="Path 551" d="M28,9H52v2H28Z" fill="#4d6581"/>
    <path id="Path_552" data-name="Path 552" d="M28,33H52v2H28Z" fill="#4d6581"/>
    <path id="Path_553" data-name="Path 553" d="M28,29H52v2H28Z" fill="#4d6581"/>
    <path id="Path_554" data-name="Path 554" d="M28,25H52v2H28Z" fill="#4d6581"/>
    <path id="Path_555" data-name="Path 555" d="M28,49H40v2H28Z" fill="#4d6581"/>
    <path id="Path_556" data-name="Path 556" d="M28,45H52v2H28Z" fill="#4d6581"/>
    <path id="Path_557" data-name="Path 557" d="M28,41H52v2H28Z" fill="#4d6581"/>
  </g>
</svg>
