<svg xmlns="http://www.w3.org/2000/svg" width="62" height="62" viewBox="0 0 62 62">
  <g id="clicker" transform="translate(-1 -1)">
    <path id="Path_542" data-name="Path 542" d="M62.707,55.293,47.956,40.542,62.243,36.97a1,1,0,0,0,.146-1.892l-45-19a1,1,0,0,0-1.31,1.31l19,45A1,1,0,0,0,36,63l.078,0a1,1,0,0,0,.893-.754l3.572-14.287L55.294,62.707a1,1,0,0,0,1.414,0l6-6A1,1,0,0,0,62.707,55.293ZM56,60.586,40.707,45.293A1,1,0,0,0,40,45a1.016,1.016,0,0,0-.267.036,1,1,0,0,0-.7.721l-3.273,13.1L18.879,18.879,58.852,35.756l-13.1,3.274a1,1,0,0,0-.464,1.677L60.586,56Z" fill="#4d6581"/>
    <path id="Path_543" data-name="Path 543" d="M3,19a16,16,0,0,1,32,0h2A18,18,0,1,0,19,37V35A16.019,16.019,0,0,1,3,19Z" fill="#4d6581"/>
    <path id="Path_544" data-name="Path 544" d="M9,19a10,10,0,0,1,20,0h2A12,12,0,1,0,19,31V29A10.011,10.011,0,0,1,9,19Z" fill="#4d6581"/>
  </g>
</svg>
