<svg xmlns="http://www.w3.org/2000/svg" width="48" height="48" viewBox="0 0 48 48"><g transform="translate(-565 -813)"><circle cx="24" cy="24" r="24" transform="translate(565 813)" fill="#2a528e"/><g transform="translate(575 788.05)"><g transform="translate(0 36.671)"><path d="M33,305.87v4.477a.5.5,0,0,0,.5.5H36.96a.5.5,0,0,0,.5-.5v-7.875l-2.514,2.514A3.049,3.049,0,0,1,33,305.87Z" transform="translate(-31.128 -286.782)" fill="#fff"/><path d="M142,301.471V309.4a.5.5,0,0,0,.5.5h3.461a.5.5,0,0,0,.5-.5v-4.67a3.017,3.017,0,0,1-2.082-.885Z" transform="translate(-133.694 -285.838)" fill="#fff"/><path d="M251,277.734V282.9a.5.5,0,0,0,.5.5h3.461a.5.5,0,0,0,.5-.5v-9.527l-3.966,3.966A2.969,2.969,0,0,1,251,277.734Z" transform="translate(-236.318 -259.333)" fill="#fff"/><path d="M364.125,170.171,360,174.3v11.257a.5.5,0,0,0,.5.5h3.461a.5.5,0,0,0,.5-.5v-15.07c-.113-.1-.2-.182-.261-.238Z" transform="translate(-338.858 -161.988)" fill="#fff"/><path d="M28.092,36.947a.984.984,0,0,0-.751-.276h-.093c-1.653.076-3.3.159-4.954.235a1.062,1.062,0,0,0-.763.265.891.891,0,0,0,.081,1.317l.413.423c.285.294.576.588.867.876L12.905,49.881,8.417,45.348a1.417,1.417,0,0,0-2.02,0L.419,51.38a1.451,1.451,0,0,0,0,2.04l.268.27a1.417,1.417,0,0,0,2.02,0l4.7-4.744,4.488,4.533a1.423,1.423,0,0,0,2.026,0L25.188,42.1l1.275,1.282a.963.963,0,0,0,.681.364.836.836,0,0,0,.407-.112,1.109,1.109,0,0,0,.244-.182,1.2,1.2,0,0,0,.309-.829c.047-1.082.1-2.163.151-3.251l.076-1.628A1.018,1.018,0,0,0,28.092,36.947Z" transform="translate(0 -36.671)" fill="#fff"/></g></g></g></svg>