<svg xmlns="http://www.w3.org/2000/svg" width="48" height="48" viewBox="0 0 48 48"><g transform="translate(-911 -431)"><circle cx="24" cy="24" r="24" transform="translate(911 431)" fill="#2a528e"/><g transform="translate(917.025 410.35)"><g transform="translate(0 28.235)"><path d="M31.536,220.9a1.053,1.053,0,0,0-1.422.444,13.447,13.447,0,0,1-25.364-6.2l.846.846a1.054,1.054,0,1,0,1.49-1.49l-2.643-2.643a1.054,1.054,0,0,0-1.49,0L.308,214.5a1.054,1.054,0,0,0,1.49,1.49l.844-.844a15.555,15.555,0,0,0,29.338,7.179A1.054,1.054,0,0,0,31.536,220.9Z" transform="translate(0 -198.668)" fill="#fff"/><path d="M86.821,42.916a1.054,1.054,0,0,0-1.49,0l-.844.844A15.555,15.555,0,0,0,55.149,36.58a1.054,1.054,0,1,0,1.867.978,13.447,13.447,0,0,1,25.364,6.2l-.845-.846a1.054,1.054,0,0,0-1.49,1.49l2.643,2.643a1.054,1.054,0,0,0,1.49,0l2.643-2.643a1.054,1.054,0,0,0,0-1.49Z" transform="translate(-51.163 -28.235)" fill="#fff"/></g><path d="M208.623,153.447a12.84,12.84,0,0,1-3.262-1.516,1.1,1.1,0,0,1-.251-1.042,1.5,1.5,0,0,1,.986-1.181,2.637,2.637,0,0,1,2.386.35,1.323,1.323,0,0,0,1.584-2.119,5.275,5.275,0,0,0-1.97-.884v-.538a1.323,1.323,0,0,0-2.645,0v.625l-.117.033a4.114,4.114,0,0,0-2.823,3.224,3.67,3.67,0,0,0,1.218,3.614,13.976,13.976,0,0,0,4.013,1.929,1.7,1.7,0,0,1,1.234,2,2.229,2.229,0,0,1-2.211,1.88,3.7,3.7,0,0,1-2.659-.7,1.323,1.323,0,1,0-1.448,2.214,5.891,5.891,0,0,0,2.793,1.077v.6a1.323,1.323,0,0,0,2.645,0v-.732a4.738,4.738,0,0,0,1.96-1.089,4.963,4.963,0,0,0,1.528-2.819,4.358,4.358,0,0,0-2.961-4.932Z" transform="translate(-188.84 -110.691)" fill="#fff"/></g></g></svg>