
        <svg xmlns="http://www.w3.org/2000/svg" xmlns:xlink="http://www.w3.org/1999/xlink" version="1.1" width="3285.714285714286" height="970.2166411507324" viewBox="0 0 3285.714285714286 970.2166411507324">
			
			<g transform="scale(14.285714285714286) translate(10, 10)">
				<defs id="SvgjsDefs2746"/><g id="SvgjsG2747" featureKey="textGroupContainer" transform="matrix(1,0,0,1,0,3)" fill="#000"><rect xmlns="http://www.w3.org/2000/svg" y="0" x="0" height="1" width="1" opacity="0"/><rect xmlns="http://www.w3.org/2000/svg" y="39.94444444444444" x="0" width="16" height="2"/><rect xmlns="http://www.w3.org/2000/svg" y="39.94444444444444" x="194" width="16" height="2"/></g><g id="SvgjsG2748" featureKey="YhTCwJ-0" transform="matrix(1.8653238778733157,0,0,1.8653238778733157,1.7170291032763423,-9.102780737491157)" fill="#000"><path d="M3.88 5.84 l8.2 11.76 l0.04 0 l0 -11.76 l1.68 0 l0 14.16 l-2.12 0 l-8.2 -11.76 l-0.04 0 l0 11.76 l-1.68 0 l0 -14.16 l2.12 0 z M17.96 5.84 q0.46 0 0.8 0.33 t0.34 0.81 q0 0.5 -0.32 0.82 t-0.82 0.32 t-0.82 -0.32 t-0.32 -0.82 q0 -0.48 0.34 -0.81 t0.8 -0.33 z M18.740000000000002 10.64 l0 9.36 l-1.56 0 l0 -9.36 l1.56 0 z M22.939999999999998 10.64 l2.48 3.36 l2.34 -3.36 l1.9 0 l-3.22 4.32 l3.86 5.04 l-2.06 0 l-2.96 -4.04 l-2.92 4.04 l-1.94 0 l3.84 -5.04 l-3.36 -4.32 l2.04 0 z M36.3 10.4 q2.18 0 3.56 1.35 t1.44 3.57 q0 2.14 -1.4 3.51 t-3.6 1.41 q-2.2 0 -3.58 -1.39 t-1.42 -3.53 q0 -2.16 1.4 -3.53 t3.6 -1.39 z M32.98 15.32 q0 1.54 0.93 2.49 t2.39 0.99 q1.46 0 2.38 -0.97 t0.94 -2.51 q0 -1.52 -0.93 -2.5 t-2.41 -0.98 q-1.44 0 -2.36 0.97 t-0.94 2.51 z M48.32 10.4 q1.76 0 2.66 1.02 t0.9 2.72 l0 5.86 l-1.56 0 l0 -5.68 q0 -1.08 -0.5 -1.77 t-1.64 -0.71 q-1.44 0 -2.17 0.95 t-0.73 2.63 l0 4.58 l-1.56 0 l0 -7.28 q0 -0.1 -0.08 -2.08 l1.48 0 q0.04 1.4 0.04 1.54 l0.04 0 q0.38 -0.8 1.23 -1.29 t1.89 -0.49 z M57.2 7.98 l0 2.66 l2.76 0 l0 1.32 l-2.76 0 l0 5 q0 1.12 0.36 1.48 t1.04 0.36 q0.78 0 1.38 -0.32 l0.06 1.42 q-0.8 0.34 -1.82 0.34 q-1.44 0 -2.01 -0.71 t-0.57 -2.33 l0 -5.24 l-2.04 0 l0 -1.32 l2.04 0 l0 -2.66 l1.56 0 z M66.48 10.4 q0.36 0 0.64 0.1 l-0.1 1.58 q-0.44 -0.12 -0.84 -0.12 q-1.36 0 -2.05 0.89 t-0.69 2.51 l0 4.64 l-1.56 0 l0 -7.28 q0 -0.28 -0.08 -2.08 l1.48 0 q0.04 1.4 0.04 1.54 l0.04 0 q0.38 -0.8 1.23 -1.29 t1.89 -0.49 z M72.52 10.4 q2.04 0 2.97 0.96 t0.95 2.9 l0 4.2 q0 0.6 0.14 1.54 l-1.5 0 q-0.1 -0.18 -0.1 -1.4 l-0.04 0 q-1.06 1.6 -3.08 1.64 q-1.54 0 -2.51 -0.77 t-0.97 -2.01 q0 -1.7 1.4 -2.49 t4.38 -0.79 l0.72 0 l0 -0.26 q0 -2.04 -2.32 -2.08 q-1.68 0 -2.78 1.02 l-0.98 -1.02 q1.44 -1.4 3.72 -1.44 z M70.06 17.3 q0 1.58 2.06 1.62 q1.22 0 1.99 -0.78 t0.77 -2.28 l0 -0.36 l-1.72 0 q-1.38 0 -2.23 0.44 t-0.87 1.36 z M88.63999999999999 4.880000000000001 l0 15.12 l-1.56 0 l0 -1.66 l-0.04 0 q-0.48 0.9 -1.46 1.4 t-2.14 0.5 q-1.98 0 -3.31 -1.41 t-1.37 -3.51 q0 -2.14 1.37 -3.52 t3.55 -1.4 q2.02 0 3.36 1.6 l0.04 0 l0 -7.12 l1.56 0 z M80.44 15.32 q0 1.54 0.93 2.5 t2.39 0.98 q1.46 0 2.37 -0.96 t0.95 -2.52 q0 -1.52 -0.93 -2.5 t-2.41 -0.98 q-1.44 0 -2.35 0.97 t-0.95 2.51 z M95.77999999999999 10.4 q2.08 0 3.25 1.31 t1.19 3.71 l0 0.38 l-7.56 0 q0.12 1.3 0.98 2.14 t2.1 0.86 q1.9 0 2.96 -1.42 l1.18 0.92 q-0.74 0.96 -1.74 1.45 t-2.4 0.49 q-2.14 0 -3.44 -1.39 t-1.32 -3.53 q0 -2.12 1.33 -3.5 t3.47 -1.42 z M98.53999999999999 14.48 q-0.06 -1.22 -0.79 -1.93 t-2.05 -0.71 q-1.2 0 -2.02 0.68 t-1.02 1.96 l5.88 0 z M105.5 10.4 q2.24 0.02 3.18 1.7 l-1.3 0.86 q-0.68 -1.12 -1.98 -1.12 q-0.78 0 -1.31 0.36 t-0.53 0.94 q0 0.94 2.34 1.36 q1.68 0.3 2.38 0.98 t0.7 1.82 q0 1.38 -1.02 2.16 t-2.72 0.78 q-1.32 0 -2.17 -0.42 t-1.47 -1.32 l1.24 -0.96 q0.58 0.7 1.14 0.98 t1.26 0.28 q0.9 0 1.48 -0.39 t0.58 -1.05 q0 -0.68 -0.61 -1.02 t-2.03 -0.62 q-1.4 -0.3 -2.03 -0.9 t-0.63 -1.66 q0 -1.18 0.97 -1.96 t2.53 -0.8 z"/></g><g id="SvgjsG2749" featureKey="duLK5n-0" transform="matrix(0.598333152185727,0,0,0.598333152185727,20.593133844531877,35.81686923950612)" fill="#000"><path d="M8.14 18.46 c1.78 0 3.44 -0.82 4.54 -2.26 l1.4 1.04 c-1.42 1.9 -3.6 2.98 -5.94 2.98 c-4.12 0 -7.46 -3.34 -7.46 -7.46 c0 -4.1 3.34 -7.44 7.46 -7.44 c2.36 0 4.54 1.1 5.96 3 l-1.42 1.04 c-1.08 -1.46 -2.74 -2.28 -4.54 -2.28 c-3.16 0 -5.7 2.54 -5.7 5.68 c0 3.16 2.54 5.7 5.7 5.7 z M37.216 5.32 c4.1 0 7.46 3.34 7.46 7.46 c0 4.1 -3.36 7.42 -7.46 7.42 s-7.44 -3.32 -7.44 -7.42 c0 -4.12 3.34 -7.46 7.44 -7.46 z M37.216 18.44 c3.12 0 5.64 -2.56 5.64 -5.66 c0 -3.12 -2.52 -5.7 -5.64 -5.7 s-5.64 2.58 -5.64 5.7 c0 3.1 2.52 5.66 5.64 5.66 z M61.11200000000001 20 l0 -14.24 l4.96 0 c0.9 0 1.76 0.36 2.4 1 s1 1.5 1 2.4 c0 1.88 -1.54 3.38 -3.4 3.38 l-3.18 0 l0 7.46 l-1.78 0 z M66.072 10.8 c0.88 0 1.6 -0.74 1.6 -1.64 s-0.72 -1.66 -1.6 -1.66 l-3.18 0 l0 3.3 l3.18 0 z M88.94800000000002 20 l0 -7.2 l-5.02 -7.04 l2.2 0 l3.74 5.22 l3.74 -5.22 l2.18 0 l-5.02 7.04 l0 7.2 l-1.82 0 z M114.66400000000002 20 l0 -12.48 l-3.76 0 l0 -1.76 l9.32 0 l0 1.76 l-3.76 0 l0 12.48 l-1.8 0 z M142.08 12.42 l5.5 7.58 l-2.06 0 l-5.44 -7.48 l-2.04 0 l0 7.48 l-1.72 0 l0 -14.24 l4.94 0 c0.9 0 1.74 0.36 2.38 1 s1 1.48 1 2.38 c0 1.58 -1.1 2.9 -2.56 3.28 z M138.04000000000002 7.48 l0 3.32 l3.22 0 c0.92 0 1.66 -0.74 1.66 -1.66 s-0.74 -1.66 -1.66 -1.66 l-3.22 0 z M173.096 20 l-1.58 -4.14 l-5.82 0 l-1.58 4.14 l-1.92 0 l5.48 -14.24 l1.86 0 l5.5 14.24 l-1.94 0 z M170.816 14.1 l-2.2 -5.76 l-2.22 5.76 l4.42 0 z M190.99200000000002 20 l0 -14.24 l4.6 0 c4.04 0 7.32 3.2 7.32 7.12 s-3.28 7.12 -7.32 7.12 l-4.6 0 z M195.592 18.26 c3.06 0 5.54 -2.44 5.54 -5.38 s-2.48 -5.38 -5.54 -5.38 l-2.82 0 l0 10.76 l2.82 0 z M220.04800000000003 20 l0 -14.24 l1.8 0 l0 14.24 l-1.8 0 z M249.324 20 l-7.62 -11.26 l0 11.26 l-1.8 0 l0 -14.24 l1.96 0 l7.6 11.26 l0 -11.26 l1.8 0 l0 14.24 l-1.94 0 z M275.54 10.84 l5.92 0 l0 6.3 c-1.42 1.9 -3.66 3.08 -6.02 3.08 c-4.1 0 -7.44 -3.34 -7.44 -7.46 c0 -4.1 3.34 -7.44 7.44 -7.44 c2.02 0 3.9 0.8 5.28 2.2 l-1.32 1.16 c-1.04 -1.04 -2.46 -1.6 -3.96 -1.6 c-3.14 0 -5.68 2.54 -5.68 5.68 c0 3.16 2.54 5.7 5.68 5.7 c1.66 0 3.18 -0.7 4.28 -1.92 l0 -3.94 l-4.18 0 l0 -1.76 z"/></g>
			</g>
		</svg>
	