<svg xmlns="http://www.w3.org/2000/svg" width="155" height="48" viewBox="0 0 155 48">
  <g id="Group_1071" data-name="Group 1071" transform="translate(-3.009 -0.224)">
    <g id="Rectangle_1608" data-name="Rectangle 1608" transform="translate(3.009 0.224)" fill="none" stroke="#cfe7f8" stroke-width="1">
      <rect width="155" height="48" rx="6" stroke="none"/>
      <rect x="0.5" y="0.5" width="154" height="47" rx="5.5" fill="none"/>
    </g>
    <g id="android" transform="translate(16.213 8.735)">
      <g id="Group_1067" data-name="Group 1067" transform="translate(4.503)">
        <path id="Path_1666" data-name="Path 1666" d="M26.582,12.73C18.5,12.7,18.31,19.766,18.31,19.766H34.855s-.256-7.01-8.272-7.036Zm-3.629,4.423a1,1,0,1,1,1-1A1,1,0,0,1,22.954,17.153Zm7.257,0a1,1,0,1,1,1-1,1,1,0,0,1-1,1Z" transform="translate(-18.31 -11.293)" fill="#cfe7f8"/>
        <path id="Path_1667" data-name="Path 1667" d="M23.054,13.493a.308.308,0,0,0,.2-.026h0c.079-.062.124-.141.1-.177l-1.545-2.181a.308.308,0,0,0-.2.026h0c-.079.062-.124.141-.1.177Z" transform="translate(-18.684 -11.103)" fill="#cfe7f8"/>
        <path id="Path_1668" data-name="Path 1668" d="M32.059,13.493a.308.308,0,0,1-.2-.026h0c-.079-.062-.124-.141-.1-.177L33.3,11.109a.308.308,0,0,1,.2.026h0c.079.062.124.141.1.177Z" transform="translate(-19.884 -11.103)" fill="#cfe7f8"/>
      </g>
      <g id="Group_1068" data-name="Group 1068" transform="translate(0 8.888)">
        <path id="Path_1669" data-name="Path 1669" d="M34.917,21.81H18.24v6.869h.018v7.2a1,1,0,0,0,1,1H33.911a1,1,0,0,0,1-1v-7.2h.018V21.81Z" transform="translate(-13.799 -21.245)" fill="#cfe7f8"/>
        <path id="Path_1670" data-name="Path 1670" d="M41.679,30.917A1.775,1.775,0,0,1,39.9,32.691h0a1.775,1.775,0,0,1-1.775-1.775V22.945A1.775,1.775,0,0,1,39.9,21.17h0a1.775,1.775,0,0,1,1.775,1.775Z" transform="translate(-16.129 -21.17)" fill="#cfe7f8"/>
        <path id="Path_1671" data-name="Path 1671" d="M16.759,30.917a1.775,1.775,0,0,1-1.775,1.775h0a1.775,1.775,0,0,1-1.775-1.775V22.945a1.775,1.775,0,0,1,1.775-1.775h0a1.775,1.775,0,0,1,1.775,1.775Z" transform="translate(-13.21 -21.17)" fill="#cfe7f8"/>
        <path id="Path_1672" data-name="Path 1672" d="M33.1,42.607a1.775,1.775,0,0,1-1.775,1.775h0a1.775,1.775,0,0,1-1.775-1.775V34.635a1.775,1.775,0,0,1,1.775-1.775h0A1.775,1.775,0,0,1,33.1,34.635Z" transform="translate(-15.124 -22.539)" fill="#cfe7f8"/>
        <path id="Path_1673" data-name="Path 1673" d="M25.339,42.607a1.775,1.775,0,0,1-1.775,1.775h0a1.775,1.775,0,0,1-1.775-1.775V34.635a1.775,1.775,0,0,1,1.775-1.775h0a1.775,1.775,0,0,1,1.775,1.775Z" transform="translate(-14.215 -22.539)" fill="#cfe7f8"/>
      </g>
    </g>
    <g id="Group_1069" data-name="Group 1069" transform="translate(49.763 9.815)">
      <path id="Path_1674" data-name="Path 1674" d="M60.167,16.7h-1.7a.412.412,0,0,1-.261.108,5.737,5.737,0,0,1-.943,1.824,18.676,18.676,0,0,1,2.461,1.114l-1.186,1.2a18.5,18.5,0,0,0-2.5-1.231,9.674,9.674,0,0,1-3.971,1.231,5.844,5.844,0,0,0-.764-1.285,10.524,10.524,0,0,0,2.991-.6c-.2-.072-.413-.144-.611-.2l-.081.162-1.545-.4c.287-.53.638-1.2.979-1.931H50.95V15.324h2.713c.225-.5.422-1.006.6-1.482H52.693v1.195H51.2V12.494h3.539V11.38l1.9.1c-.009.117-.1.189-.323.225v.8h3.6v2.542H58.343V13.85H54.669l1.41.261c-.027.117-.117.18-.332.18-.135.332-.278.674-.431,1.033h4.86V16.7Zm-5.471,0c-.144.323-.287.647-.431.952.476.117.988.278,1.509.449a3.5,3.5,0,0,0,.791-1.41H54.7Z" transform="translate(-50.95 -11.38)" fill="#cfe7f8"/>
      <path id="Path_1675" data-name="Path 1675" d="M71.324,18.208v1.321H67.47v1.419H65.952V19.529H62.17V18.208h3.782v-.431H63.185V13.654h2.677V11.39l1.833.1c-.009.108-.1.18-.314.225v.35H70.9v1.222H67.38v.368h3.036v4.123H67.47v.431ZM64.64,14.795v.368H68.89v-.368Zm0,1.446v.386H68.89v-.386Z" transform="translate(-52.091 -11.381)" fill="#cfe7f8"/>
      <path id="Path_1676" data-name="Path 1676" d="M78.281,18.485h-3.09l-.674,1.608H72.9l3.3-7.663h1.168l3.207,7.663H78.964l-.674-1.608Zm-.44-1.222-1.087-2.758-1.087,2.758H77.85Z" transform="translate(-53.181 -11.487)" fill="#cfe7f8"/>
      <path id="Path_1677" data-name="Path 1677" d="M84.979,12.43A2.747,2.747,0,0,1,87,13.014a2.433,2.433,0,0,1,.782,1.851,2.488,2.488,0,0,1-.629,1.716,2.637,2.637,0,0,1-1.94.674h-.961v2.839H82.76V12.43h2.228Zm-.737,3.539h.611a1.531,1.531,0,0,0,.979-.243,1.136,1.136,0,0,0,.413-.9,1.063,1.063,0,0,0-.422-.871,1.831,1.831,0,0,0-1.06-.243h-.521v2.255Z" transform="translate(-54.184 -11.487)" fill="#cfe7f8"/>
      <path id="Path_1678" data-name="Path 1678" d="M92.129,12.43a2.747,2.747,0,0,1,2.021.584,2.433,2.433,0,0,1,.782,1.851A2.488,2.488,0,0,1,94.3,16.58a2.637,2.637,0,0,1-1.94.674H91.4v2.839H89.91V12.43h2.228Zm-.737,3.539H92a1.531,1.531,0,0,0,.979-.243,1.137,1.137,0,0,0,.413-.9,1.063,1.063,0,0,0-.422-.871,1.831,1.831,0,0,0-1.06-.243h-.521v2.255Z" transform="translate(-54.911 -11.487)" fill="#cfe7f8"/>
    </g>
    <g id="Group_1072" data-name="Group 1072" transform="translate(-0.597 -2.359)">
      <path id="Path_1699" data-name="Path 1699" d="M52.127,37.44l1.844.777q-.717,1.575-1.861,3.636l-1.75-.93a38.44,38.44,0,0,0,1.767-3.491Zm-.077-6.146h4.43V26.95h2.125V28.2h6.274v1.886H58.606v1.2h5.062V36.98H52.042V31.286Zm9.441,1.827H54.244v2.04h7.247Zm-5.1,4.567c.469,1.238.845,2.313,1.135,3.218l-1.946.5c-.41-1.332-.768-2.4-1.067-3.209l1.869-.512Zm3.534-.154c.435.973.879,2.014,1.315,3.15l-1.963.6c-.367-1.093-.768-2.142-1.2-3.158l1.844-.58Zm3.448-.222c.632,1.186,1.212,2.39,1.741,3.594l-1.869.734q-.9-2.036-1.664-3.576l1.8-.751Z" transform="translate(0 -0.029)" fill="#cfe7f8"/>
      <path id="Path_1700" data-name="Path 1700" d="M79.673,41.664v-.751h-10V35.877h2.125v3.056h2.834V34.87H68.38V32.864h6.248v-1.81H69.251V29.048h5.378V26.94h2.185v2.108h5.437v2.006H76.813v1.81h6.231V34.87H76.813v4.063h2.859V35.877H81.8v5.779H79.673Z" transform="translate(-2.638 -0.028)" fill="#cfe7f8"/>
      <path id="Path_1701" data-name="Path 1701" d="M86.35,39.093h7.58a66.322,66.322,0,0,0,3.209-7.477l2.185.751q-1.421,3.38-3.064,6.726h4.772V41.1H86.35V39.093Zm.393-9.645h6.171q-.448-.819-1.076-1.767l2.049-.93A25.105,25.105,0,0,1,95.3,28.969l-1.024.478h6.436v1.98H86.743v-1.98Zm3.337,2.219c1.041,2.245,1.921,4.37,2.655,6.385l-2.16.794A67.061,67.061,0,0,0,88.1,32.418Z" transform="translate(-5.27)" fill="#cfe7f8"/>
      <path id="Path_1702" data-name="Path 1702" d="M112.322,39.634l-1.741.956-.555-1.11a40.859,40.859,0,0,0-4.43,1.8l-.956-1.511a2.244,2.244,0,0,0,.478-1.528V27.59h6.59v8.058h-1.63c.794,1.315,1.545,2.638,2.245,3.986Zm-2.535-10.183h-2.723v1.332h2.723Zm0,4.345V32.464h-2.723V33.8Zm-1.332,2.6,1.366-.751h-2.757v3.073l2.185-.777-.794-1.545Zm4.029-8.45h5.932v9.33a2.643,2.643,0,0,1-.4,1.579,1.45,1.45,0,0,1-1.135.58c-.487.026-1.178.034-2.083.026-.094-.8-.188-1.468-.3-2.006.572.06,1.05.094,1.425.094s.555-.222.555-.657V29.869h-2.04V41.7h-1.946V27.949Z" transform="translate(-7.948 -0.123)" fill="#cfe7f8"/>
      <path id="Path_1703" data-name="Path 1703" d="M131.651,31.764q2.433,1.741,4.865,3.611l-1.545,1.886q-2.548-2.2-4.643-3.756v8.314H127.9V30.108H122.39V28h14.468v2.108h-6.53v2.979l1.315-1.315Z" transform="translate(-10.547 -0.183)" fill="#cfe7f8"/>
      <path id="Path_1704" data-name="Path 1704" d="M140.169,30.488H143.6V29.5h-2.936V28.064H143.6v-1.11h1.946v1.11h2.783V29.5h-2.783v.99h3.235c-.043-1.1-.06-2.288-.06-3.568h1.98c0,1.28.009,2.475.051,3.568h4.234v1.588h-4.148c.085,1.246.2,2.347.358,3.312a18.19,18.19,0,0,0,1.588-2.783l1.673.811a27.308,27.308,0,0,1-2.714,4.362c.333,1.016.632,1.528.888,1.528.358,0,.563-.888.615-2.655a12.156,12.156,0,0,0,1.827.913c-.222,2.68-.947,4.012-2.168,4.012a2.94,2.94,0,0,1-2.655-2.04,21.3,21.3,0,0,1-1.613,1.554c-.316-.341-.666-.7-1.058-1.058l-1.6.06V41.67H144.1V40.176l-3.551.162-.213-1.8,3.764-.077V37.393h-3.329V35.712a7.919,7.919,0,0,0,.947-1.255H140.5v-1.5h2.057l.35-.691h2.168l-.4.691h3.756v1.5h-4.686c-.333.512-.657.99-.99,1.434h1.332V35.02h1.886v.871h2.262v1.494h-2.262v1c.854-.034,1.63-.068,2.322-.111-.017.128-.026.256-.034.376a17.692,17.692,0,0,0,1.28-1.246,33.834,33.834,0,0,1-.683-5.352h-8.7V30.462Zm12.539-3.534c.546.6,1.152,1.34,1.81,2.219l-1.724,1.016a21.875,21.875,0,0,0-1.622-2.322l1.528-.913Z" transform="translate(-13.149 -0.025)" fill="#cfe7f8"/>
    </g>
  </g>
</svg>
