<svg id="play" xmlns="http://www.w3.org/2000/svg" width="44.001" height="44" viewBox="0 0 44.001 44">
  <path id="Subtraction_4" data-name="Subtraction 4" d="M11180-5409a21.861,21.861,0,0,1-8.562-1.729,21.934,21.934,0,0,1-6.994-4.714,21.949,21.949,0,0,1-4.714-6.992A21.882,21.882,0,0,1,11158-5431a21.888,21.888,0,0,1,1.729-8.564,21.937,21.937,0,0,1,4.714-6.993,21.921,21.921,0,0,1,6.994-4.715A21.846,21.846,0,0,1,11180-5453a21.858,21.858,0,0,1,8.563,1.729,21.924,21.924,0,0,1,6.994,4.715,21.919,21.919,0,0,1,4.715,6.993A21.864,21.864,0,0,1,11202-5431a21.863,21.863,0,0,1-1.729,8.563,21.925,21.925,0,0,1-4.715,6.992,21.934,21.934,0,0,1-6.994,4.714A21.869,21.869,0,0,1,11180-5409Zm-4.49-32.956a2.011,2.011,0,0,0-2.01,2v17.905a2.012,2.012,0,0,0,2.011,2,1.973,1.973,0,0,0,1.206-.416l11.706-8.951a1.987,1.987,0,0,0,.787-1.59,1.987,1.987,0,0,0-.787-1.59l-11.706-8.951A1.973,1.973,0,0,0,11175.509-5441.957Z" transform="translate(-11158 5453)" fill="#15212b"/>
</svg>
