<?xml version="1.0" encoding="UTF-8"?>
<svg xmlns="http://www.w3.org/2000/svg" viewBox="0 0 492 134">
  <defs>
    <style>
      .cls-1 {
        fill: #f9f9f9;
      }

      .cls-2 {
        fill: #03468e;
      }

      .cls-3 {
        fill: #7cbeff;
      }
    </style>
  </defs>
  <g id="_200" data-name=" 200">
    <path id="Rectangle_1585" data-name="Rectangle 1585" class="cls-2" d="m67,0h358c37,0,67,30,67,67h0c0,37-30,67-67,67H67C30,134,0,104,0,67h0C0,30,30,0,67,0Z"/>
  </g>
  <g id="s">
    <g>
      <path class="cls-1" d="m79.1,57.51h12.17c-.27-.65-.53-1.25-.78-1.79l4.72-.7c.35.88.67,1.71.95,2.49h11.7v2.99h-28.77v-2.99Zm1.41,12.04h26.07v9.67c0,1.4-.27,2.48-.82,3.24s-1.28,1.22-2.2,1.38-2.79.24-5.62.24c-.21-1.19-.47-2.33-.76-3.43,1.11.1,2.3.15,3.57.15s1.96-.63,1.96-1.9v-6.42h-18.34v11.51h-3.87v-14.44Zm2.78-1.26v-6.56h20.45v6.56h-20.45Zm3.63,13.04v-7.56h13.18v6.65h-9.67v.91h-3.52Zm12.89-15.56v-1.52h-12.6v1.52h12.6Zm-3.22,12.19v-1.73h-6.15v1.73h6.15Z"/>
      <path class="cls-1" d="m124.81,79.54c4.55.1,9.45.04,14.71-.18-.51,1.35-.99,2.7-1.44,4.04-5.49.02-10.58-.03-15.26-.15-3.01-.16-5.37-1.17-7.09-3.05-.76.82-1.95,2.13-3.57,3.93l-1.76-4.34c.59-.62,1.69-1.66,3.31-3.11v-7.35h-2.93v-3.87h6.86v11.54c1.7,1.62,4.09,2.46,7.18,2.52Zm-10.43-24.02c1.46,1.89,2.8,3.72,4.01,5.48l-3.52,2.37c-.88-1.58-2.1-3.54-3.66-5.89l3.16-1.96Zm4.37,5.98h7c.1-1.7.15-3.69.15-5.98h4.07c0,2.23-.04,4.22-.12,5.98h8.73v3.6h-8.99c-.08.76-.18,1.46-.29,2.08,3.32,2.69,6.35,5.22,9.08,7.59l-3.02,3.43c-2.4-2.34-4.87-4.57-7.41-6.68-1.11,2.11-3.24,4.47-6.39,7.09-1.05-1.27-2.08-2.37-3.08-3.31,3.54-2.7,5.61-5.06,6.21-7.09.29-.68.54-1.72.73-3.1h-6.68v-3.6Z"/>
    </g>
    <g>
      <path class="cls-1" d="m352.4,61.65l-.32-3.87c1.88-.13,3.81-.28,5.77-.47v-2.72h-5.6v-3.54c.7-2,1.33-4.15,1.89-6.45h-2.01v-3.46h2.77c.23-1.18.45-2.4.66-3.66l3.84.26c-.24,1.13-.5,2.27-.78,3.4h5.73v3.46h-6.61c-.59,2.18-1.23,4.36-1.92,6.53h2.02v-4.95h3.52v4.95h3.16v3.46h-3.16v2.37l3.69-.41c-.14,1.19-.22,2.41-.26,3.66l-3.43.37v5.82h-3.52v-5.41l-5.45.66Zm13.1-.97l2.08-3.08c1.65.76,3.38,1.6,5.2,2.52l3.33-3.93h-9.87v-2.84l.79-3.05h-2.67v-3.28h3.47l.6-2.61h-2.78v-3.28h3.49l.7-3.6h4.19l-.73,3.6h6.83v3.28h-7.54c-.2.9-.4,1.77-.6,2.61h9.2v3.28h-10c-.22.9-.45,1.77-.69,2.61h10.17v3.08l-4.56,5.83c.84.43,1.69.88,2.56,1.35l-2.26,3.31c-3.63-2.11-7.27-4.04-10.9-5.8Z"/>
      <path class="cls-1" d="m411.18,42.02c-7.17.49-13.99.84-20.48,1.05v2.4h20.27v12.25h-4.07v-1.58h-16.73c-.66,4.22-1.83,7.71-3.49,10.49-.94-1.11-1.99-2.21-3.16-3.28,1.74-3.05,2.77-7.05,3.11-12.01v-12.1c7.95.06,15.53-.26,22.73-.97l1.82,3.75Zm-4.28,10.66v-3.75h-16.2v2.58c-.04.41-.08.8-.12,1.17h16.32Z"/>
      <path class="cls-1" d="m364.8,81.44l2.93,1.85c-1.08,1.45-2.18,2.84-3.3,4.17l2.86,1.89-2.43,3.05c-1.46-1.16-2.86-2.24-4.19-3.24v10.27h-4.07v-11.22c-1.07,1.08-2.22,2.19-3.43,3.31-.39-1.56-.83-3.04-1.32-4.42,2.81-2.27,5.2-4.68,7.15-7.24h-6.59v-3.81h5.26c-.83-1.24-1.82-2.6-2.97-4.07l3.37-1.9c1.33,1.56,2.49,3.05,3.49,4.45l-2.58,1.52h4.78v3.52c-.89,1.35-1.91,2.73-3.08,4.15v1.38c.41.24.81.49,1.2.75,1.03-1.46,2-2.93,2.93-4.39Zm9.7-2.14c2.56,2.23,4.87,4.37,6.94,6.42l-3.19,3.16c-1.64-1.85-3.37-3.69-5.19-5.54v16.08h-4.25v-28.89h4.25v10.03l1.44-1.27Z"/>
      <path class="cls-1" d="m389.41,76.25h3.05v10.49c0,.88-.06,1.72-.19,2.53l5.35,6.52-2.87,2.43c-1.3-1.93-2.5-3.67-3.6-5.21-1.09,2.38-2.88,4.45-5.36,6.21-.57-.86-1.3-1.87-2.2-3.02,3.89-2.75,5.83-5.92,5.83-9.49v-10.46Zm-4.63,13.74v-18.34h12.3v18.22h-3.25v-14.85h-5.8v14.97h-3.25Zm13.51,9.29v-14.88h4.31v-13.92h3.96v5.48h6.18v3.52h-6.18v4.92h4.86v14.82h-3.66v-1.82h-5.8v1.88h-3.66Zm9.46-11.37h-5.8v5.98h5.8v-5.98Z"/>
    </g>
    <path class="cls-3" d="m153.78,50.27h4.6v5.06c2.24.12,4.55.9,6.95,2.35l-3.04,5.89c-1.72-1.32-3.44-1.98-5.15-1.98-1.26,0-2.18.28-2.76.83-.46.4-.69.9-.69,1.52s.21,1.09.64,1.52c.52.46,1.23.84,2.12,1.15l2.39.83c2.39.8,4.17,1.76,5.34,2.9,1.53,1.5,2.3,3.37,2.3,5.61,0,2.82-.86,5.14-2.58,6.95-1.38,1.41-3.22,2.41-5.52,2.99v5.2h-4.6v-4.97c-1.75-.03-3.48-.4-5.2-1.1-1.63-.67-3.11-1.55-4.46-2.62l3.31-6.16c1.1,1.07,2.16,1.86,3.17,2.35,1.47.71,2.87,1.06,4.19,1.06s2.28-.35,2.99-1.06c.55-.55.83-1.2.83-1.93s-.31-1.29-.92-1.75c-.43-.31-1.12-.61-2.07-.92l-2.71-.92c-2.36-.8-4.05-1.75-5.06-2.85-1.32-1.35-1.98-3.13-1.98-5.34,0-2.64.77-4.8,2.3-6.49,1.44-1.59,3.31-2.61,5.61-3.04v-5.06Z"/>
    <g>
      <path class="cls-3" d="m222.09,86.82v14.82h-53.94l17.04-17.85c6.12-6.39,10.72-12.07,13.81-17.04,2.42-3.76,3.63-7.26,3.63-10.49,0-2.82-.67-4.97-2.02-6.45-1.21-1.34-2.86-2.02-4.94-2.02-2.49,0-4.44.91-5.85,2.72-1.48,1.88-2.29,4.64-2.42,8.27h-18.05c.07-7.53,2.55-13.75,7.46-18.65,4.84-4.84,11.19-7.26,19.06-7.26s14.32,2.32,18.96,6.96c4.37,4.37,6.55,9.88,6.55,16.54,0,7.13-3.33,13.78-9.98,19.96l-11.29,10.49h21.98Z"/>
      <path class="cls-3" d="m275.93,34.39v14.82h-23.29l-1.21,7.46c2.08-.34,3.9-.5,5.44-.5,7.53,0,13.44,2.22,17.75,6.66,4.1,4.1,6.15,9.41,6.15,15.93s-2.15,12.4-6.45,16.84c-4.91,5.04-11.9,7.56-20.97,7.56s-16.3-2.02-22.69-6.05l2.62-16.33c2.55,2.35,5.24,4.17,8.07,5.45,3.29,1.55,6.65,2.32,10.08,2.32,3.76,0,6.69-1.11,8.77-3.33,1.75-1.88,2.62-4.17,2.62-6.86,0-2.96-1.08-5.38-3.23-7.26-2.49-2.22-6.52-3.33-12.1-3.33-4.5,0-8.64.94-12.4,2.82l5.85-36.2h34.99Z"/>
      <path class="cls-3" d="m345.3,68.07c0,11.76-3.33,20.91-9.98,27.43-5.18,5.11-11.36,7.66-18.55,7.66s-13.38-2.55-18.55-7.66c-6.65-6.52-9.98-15.66-9.98-27.43s3.33-21.01,9.98-27.53c5.18-5.11,11.36-7.66,18.55-7.66s13.38,2.56,18.55,7.66c6.66,6.52,9.98,15.7,9.98,27.53Zm-28.54-19.56c-2.02,0-3.8.71-5.34,2.12-1.75,1.48-3.16,3.95-4.24,7.41-1.08,3.46-1.61,6.84-1.61,10.13,0,3.02.52,6.3,1.56,9.83,1.04,3.53,2.47,6.1,4.29,7.71,1.55,1.41,3.33,2.12,5.34,2.12s3.8-.71,5.34-2.12c1.75-1.54,3.16-4.05,4.24-7.51,1.07-3.46,1.61-6.77,1.61-9.93s-.55-6.52-1.66-10.08c-1.11-3.56-2.5-6.08-4.18-7.56-1.55-1.41-3.33-2.12-5.34-2.12Z"/>
    </g>
  </g>
</svg>