<?xml version="1.0" encoding="UTF-8"?>
<svg xmlns="http://www.w3.org/2000/svg" viewBox="0 0 492 134">
  <defs>
    <style>
      .cls-1 {
        fill: #f9f9f9;
      }

      .cls-2 {
        fill: #03468e;
      }

      .cls-3 {
        fill: #7cbeff;
      }
    </style>
  </defs>
  <g id="_200" data-name=" 200">
    <path id="Rectangle_1585" data-name="Rectangle 1585" class="cls-2" d="m67,0h358c37,0,67,30,67,67h0c0,37-30,67-67,67H67C30,134,0,104,0,67h0C0,30,30,0,67,0Z"/>
  </g>
  <g id="t">
    <g>
      <path class="cls-1" d="m95.11,58.22h11.76v3.06h-26.76v-3.06h11.31v-2.55l4.5.27c-.03.27-.24.48-.81.54v1.74Zm10.62,12.15v9.84c0,3.36-1.59,3.75-6.42,3.75-.09-.69-.36-1.62-.69-2.43h-7.83v1.38h-3.15v-8.16h11.58v5.88c.51,0,1.02.03,1.41.03,1.32,0,1.47-.06,1.47-.51v-6.78h-17.16v10.65h-3.51v-13.65h24.3Zm-20.55-7.92h16.56v6.66h-16.56v-6.66Zm12.9,4.23v-1.83h-9.48v1.83h9.48Zm-2.04,12.42v-1.95h-5.25v1.95h5.25Z"/>
      <path class="cls-1" d="m117.88,67.46v9.69c1.8,3.06,5.1,3.06,10.62,3.06,3.57,0,7.86-.09,10.74-.33-.42.84-.96,2.49-1.14,3.51-2.28.12-5.58.18-8.61.18-6.93,0-10.38,0-13.11-3.45-1.2,1.17-2.46,2.31-3.54,3.21.03.36-.09.48-.39.63l-1.77-3.78c1.17-.78,2.52-1.74,3.75-2.76v-6.63h-3.39v-3.33h6.84Zm-3.96-10.98c1.71,1.35,3.81,3.36,4.77,4.8l-2.97,2.25c-.84-1.44-2.85-3.54-4.56-5.01l2.76-2.04Zm9.6,10.53c-.18-.78-.54-1.71-.93-2.43l.72-.18h-4.38v-2.52h8.01v-1.38h-5.97v-2.52h5.97v-2.28l4.38.24c-.03.3-.27.48-.81.6v1.44h6.27v2.52h-6.27v1.38h8.13v2.52h-3.81l.81.24c-.09.3-.39.36-.75.33-.33.6-.75,1.35-1.2,2.04h4.65v2.49h-7.83v1.2h6.66v2.43h-6.66v1.32h7.86v2.55h-7.86v2.19h-3.57v-2.19h-7.56v-2.55h7.56v-1.32h-6.33v-2.43h6.33v-1.2h-7.5v-2.49h4.08Zm7.17,0l-.24-.09c.33-.72.72-1.68,1.02-2.52h-5.49c.48.84.87,1.83.96,2.55l-.27.06h4.02Z"/>
    </g>
    <g>
      <path class="cls-1" d="m378.07,55.93c-.06.3-.24.45-.75.51v.51h3.42v2.64h-3.42v3.42c0,2.76-.99,3.21-6.09,3.21-.12-.87-.54-2.01-.9-2.85l-1.2.75c-.48-1.05-1.53-2.61-2.61-3.69l1.44-.84h-2.79v1.74h-4.68v4.8h-3.18v-4.8h-4.89v-3.15h4.89v-1.8h-3.87v-10.95h3.87v-1.59h-4.47v-3.12h4.47v-2.88l3.9.24c-.03.27-.21.42-.72.51v2.13h4.29v3.12h-4.29v1.59h4.02v10.95h-4.02v1.8h4.65v-1.23h8.88v-1.2l4.02.15c-.12-.21-.24-.45-.39-.66-4.26.21-8.55.33-11.4.42-.06.27-.27.39-.48.42l-.81-2.97c1.68,0,3.87,0,6.24-.03v-1.26h-5.07v-8.22h5.07v-1.11h-5.79v-2.64h5.79v-2.01l3.81.21c-.03.27-.24.42-.75.54v1.26h6.09v2.64h-6.09v1.11h5.4v8.22h-1.14c.99,1.11,1.92,2.43,2.4,3.36l-2.58,1.32-.27-.57Zm-22.08-7.98v1.77h1.74v-1.77h-1.74Zm0,4.14v1.8h1.74v-1.8h-1.74Zm5.91-2.37v-1.77h-1.83v1.77h1.83Zm0,4.17v-1.8h-1.83v1.8h1.83Zm7.05-8.34v1.2h2.25v-1.2h-2.25Zm0,4.32h2.25v-1.26h-2.25v1.26Zm1.47,13.44c1.23.06,2.64.06,3.03.06.42-.03.57-.12.57-.45v-3.33h-4.5c.9.93,1.74,2.04,2.19,2.91l-1.29.81Zm6.27-17.76h-2.43v1.2h2.43v-1.2Zm0,4.32v-1.26h-2.43v1.26h2.43Zm-2.43,3.18l1.86-.03-.66-.81.84-.39h-2.04v1.23Z"/>
      <path class="cls-1" d="m391.81,45.82h17.01v12.63h-3.69v-1.53h-14.01c-.66,3.27-1.89,6.63-4.2,9.21-.54-.78-1.95-2.01-2.88-2.46,3.75-4.29,4.11-10.26,4.11-14.67v-8.82l2.4.69c5.4-.69,11.16-1.8,14.73-3.03l3,2.79c-.15.15-.21.15-.84.15-4.05,1.23-10.05,2.25-15.63,2.94v2.1Zm0,3.33c0,1.32-.06,2.85-.21,4.44h13.53v-4.44h-13.32Z"/>
      <path class="cls-1" d="m380.8,78.22h-7.02v1.95h6.03v15.57c0,2.37-.66,3.45-4.56,3.45-.15-.9-.66-2.28-1.08-3.09.78.03,1.56.03,1.86.03s.39-.09.39-.42v-2.37h-2.64v5.64h-3.42v-5.64h-2.52v5.76h-3.3v-15c-.12.03-.24.03-.39,0-.45.69-1.23,1.71-1.92,2.55l1.53,1.92-2.1,2.4c-.45-.84-1.2-2.04-1.98-3.21v11.37h-3.3v-9.72c-.84.99-1.68,1.89-2.55,2.64-.3-.93-1.17-2.67-1.68-3.27,2.61-2.07,5.19-5.61,6.78-9.21h-6v-3.21h3.42v-5.37l4.05.21c-.03.27-.24.48-.75.54v4.62h.99l.51-.15,2.22,1.26c-.09.21-.27.36-.48.42-.69,2.07-1.65,4.17-2.79,6.15l.72.84c.6-.9,1.26-1.98,1.65-2.79l2.07,1.59v-3.51h5.82v-1.95h-6.99v-3.18h6.99v-4.14l4.17.24c-.03.27-.24.45-.75.54v3.36h3.6c-.87-.75-2.04-1.56-3.03-2.19l1.95-1.86c1.38.72,3.12,1.86,3.99,2.73l-1.35,1.32h1.86v3.18Zm-10.44,4.98h-2.52v2.04h2.52v-2.04Zm-2.52,7.05h2.52v-2.04h-2.52v2.04Zm8.58-7.05h-2.64v2.04h2.64v-2.04Zm-2.64,7.05h2.64v-2.04h-2.64v2.04Z"/>
      <path class="cls-1" d="m391.03,92.83c-.12.18-.36.33-.75.3-.87,2.13-2.31,4.47-3.87,5.97-.66-.57-1.86-1.38-2.64-1.86,1.44-1.29,2.73-3.48,3.42-5.55l3.84,1.14Zm4.92-20.82v19.44h-10.41v-19.44h10.41Zm-3.42,5.61v-2.76h-3.75v2.76h3.75Zm0,5.49v-2.82h-3.75v2.82h3.75Zm0,5.46v-2.82h-3.75v2.82h3.75Zm1.56,9.45c-.48-1.44-1.71-3.6-2.91-5.16l2.85-1.26c1.26,1.53,2.52,3.54,3.09,4.95l-3.03,1.47Zm18.18-17.4h-6.54v4.77h5.34v13.62h-3.48v-1.14h-6.69v1.26h-3.33v-13.74h4.59v-14.52l4.35.24c-.03.27-.24.48-.78.57v5.67h6.54v3.27Zm-4.68,14.01v-6.03h-6.69v6.03h6.69Z"/>
    </g>
    <path class="cls-3" d="m153.78,50.27h4.6v5.06c2.24.12,4.55.9,6.95,2.35l-3.04,5.89c-1.72-1.32-3.44-1.98-5.15-1.98-1.26,0-2.18.28-2.76.83-.46.4-.69.9-.69,1.52s.21,1.09.64,1.52c.52.46,1.23.84,2.12,1.15l2.39.83c2.39.8,4.17,1.76,5.34,2.9,1.53,1.5,2.3,3.37,2.3,5.61,0,2.82-.86,5.14-2.58,6.95-1.38,1.41-3.22,2.41-5.52,2.99v5.2h-4.6v-4.97c-1.75-.03-3.48-.4-5.2-1.1-1.63-.67-3.11-1.55-4.46-2.62l3.31-6.16c1.1,1.07,2.16,1.86,3.17,2.35,1.47.71,2.87,1.06,4.19,1.06s2.28-.35,2.99-1.06c.55-.55.83-1.2.83-1.93s-.31-1.29-.92-1.75c-.43-.31-1.12-.61-2.07-.92l-2.71-.92c-2.36-.8-4.05-1.75-5.06-2.85-1.32-1.35-1.98-3.13-1.98-5.34,0-2.64.77-4.8,2.3-6.49,1.44-1.59,3.31-2.61,5.61-3.04v-5.06Z"/>
    <g>
      <path class="cls-3" d="m222.09,86.82v14.82h-53.94l17.04-17.85c6.12-6.39,10.72-12.07,13.81-17.04,2.42-3.76,3.63-7.26,3.63-10.49,0-2.82-.67-4.97-2.02-6.45-1.21-1.34-2.86-2.02-4.94-2.02-2.49,0-4.44.91-5.85,2.72-1.48,1.88-2.29,4.64-2.42,8.27h-18.05c.07-7.53,2.55-13.75,7.46-18.65,4.84-4.84,11.19-7.26,19.06-7.26s14.32,2.32,18.96,6.96c4.37,4.37,6.55,9.88,6.55,16.54,0,7.13-3.33,13.78-9.98,19.96l-11.29,10.49h21.98Z"/>
      <path class="cls-3" d="m275.93,34.39v14.82h-23.29l-1.21,7.46c2.08-.34,3.9-.5,5.44-.5,7.53,0,13.44,2.22,17.75,6.66,4.1,4.1,6.15,9.41,6.15,15.93s-2.15,12.4-6.45,16.84c-4.91,5.04-11.9,7.56-20.97,7.56s-16.3-2.02-22.69-6.05l2.62-16.33c2.55,2.35,5.24,4.17,8.07,5.45,3.29,1.55,6.65,2.32,10.08,2.32,3.76,0,6.69-1.11,8.77-3.33,1.75-1.88,2.62-4.17,2.62-6.86,0-2.96-1.08-5.38-3.23-7.26-2.49-2.22-6.52-3.33-12.1-3.33-4.5,0-8.64.94-12.4,2.82l5.85-36.2h34.99Z"/>
      <path class="cls-3" d="m345.3,68.07c0,11.76-3.33,20.91-9.98,27.43-5.18,5.11-11.36,7.66-18.55,7.66s-13.38-2.55-18.55-7.66c-6.65-6.52-9.98-15.66-9.98-27.43s3.33-21.01,9.98-27.53c5.18-5.11,11.36-7.66,18.55-7.66s13.38,2.56,18.55,7.66c6.66,6.52,9.98,15.7,9.98,27.53Zm-28.54-19.56c-2.02,0-3.8.71-5.34,2.12-1.75,1.48-3.16,3.95-4.24,7.41-1.08,3.46-1.61,6.84-1.61,10.13,0,3.02.52,6.3,1.56,9.83,1.04,3.53,2.47,6.1,4.29,7.71,1.55,1.41,3.33,2.12,5.34,2.12s3.8-.71,5.34-2.12c1.75-1.54,3.16-4.05,4.24-7.51,1.07-3.46,1.61-6.77,1.61-9.93s-.55-6.52-1.66-10.08c-1.11-3.56-2.5-6.08-4.18-7.56-1.55-1.41-3.33-2.12-5.34-2.12Z"/>
    </g>
  </g>
</svg>