<svg xmlns="http://www.w3.org/2000/svg" version="1.1" xmlns:xlink="http://www.w3.org/1999/xlink" xmlns:svgjs="http://svgjs.dev/svgjs" width="1500" height="371" viewBox="0 0 1500 371"><g transform="matrix(1,0,0,1,-1.8351063829786654,-0.7773247849463019)"><svg viewBox="0 0 376 93" data-background-color="#03468e" preserveAspectRatio="xMidYMid meet" height="371" width="1500" xmlns="http://www.w3.org/2000/svg" xmlns:xlink="http://www.w3.org/1999/xlink"><g id="tight-bounds" transform="matrix(1,0,0,1,0.46023999999999887,0.1948550000000182)"><svg viewBox="0 0 375.07953 92.61028999999999" height="92.61028999999999" width="375.07953"><g><svg></svg></g><g><svg viewBox="0 0 375.07953 92.61028999999999" height="92.61028999999999" width="375.07953"><g transform="matrix(1,0,0,1,-10.22024,-78.8598)"><path d="M10.22 168.34v-89.48h375.08v89.48h-163.572v-2.878h160.694v-83.724h-369.324v83.724h160.694l0 2.878z" fill="#ffffff" fill-rule="nonzero" stroke="none" stroke-width="1" stroke-linecap="butt" stroke-linejoin="miter" stroke-miterlimit="10" stroke-dasharray="" stroke-dashoffset="0" font-family="none" font-weight="none" font-size="none" text-anchor="none" style="mix-blend-mode: normal" data-fill-palette-color="tertiary"></path><g><path d="M182.567 158.589v0c0.43 0 1.115-0.021 2.054-0.063 0.937-0.042 1.789-0.063 2.554-0.063v0c1.625 0 2.784 0.317 3.476 0.95 0.692 0.635 1.038 1.519 1.038 2.652v0c0 1.007-0.448 1.851-1.343 2.532-0.898 0.682-1.965 1.022-3.202 1.022v0c-0.64 0-1.18-0.031-1.62-0.094v0 4.939l1.431 0.157c0.042 0.157 0.042 0.351 0 0.582v0c-0.661-0.031-1.405-0.047-2.233-0.047v0c-0.619 0-1.368 0.01-2.249 0.031v0c-0.063-0.189-0.063-0.377 0-0.566v0l1.305-0.189c0.042-0.398 0.063-1.012 0.063-1.84v0-9.264l-1.274-0.157c-0.042-0.157-0.042-0.351 0-0.582zM185.524 161.2v0 3.68c0.325 0.042 0.797 0.063 1.415 0.063v0c0.545 0 1.015-0.092 1.41-0.277 0.392-0.182 0.688-0.429 0.887-0.739 0.199-0.308 0.341-0.62 0.424-0.934 0.084-0.315 0.126-0.65 0.126-1.007v0c0-0.912-0.231-1.618-0.692-2.117-0.461-0.497-1.232-0.745-2.312-0.745v0c-0.388 0-0.776 0.037-1.164 0.11v0c-0.063 0.598-0.094 1.253-0.094 1.966zM195.244 161.184v0 9.169l1.274 0.236c0.042 0.168 0.042 0.377 0 0.629v0c-0.661-0.031-1.337-0.047-2.029-0.047v0c-0.482 0-1.164 0.01-2.045 0.032v0c-0.063-0.199-0.063-0.404 0-0.614v0l1.243-0.173c0.042-0.577 0.063-1.242 0.062-1.997v0-9.012l-1.289-0.157c-0.042-0.157-0.042-0.356 0-0.598v0c0.723-0.052 1.625-0.163 2.705-0.33v0c0.094 0.105 0.147 0.21 0.157 0.314v0c-0.052 0.273-0.079 1.122-0.078 2.548zM204.963 162.757v0 6.165c0 0.703 0.016 1.195 0.047 1.479v0l1.243 0.157c0.031 0.168 0.031 0.367 0 0.598v0c-0.765 0.031-1.562 0.105-2.391 0.22v0c-0.073-0.073-0.126-0.173-0.157-0.299v0l-0.079-1.4c-0.44 0.566-0.893 1.007-1.358 1.321-0.468 0.315-1.016 0.472-1.646 0.472v0c-0.64 0-1.176-0.163-1.61-0.487-0.436-0.325-0.654-0.881-0.654-1.668v0-3.491c0-1.195-0.016-1.961-0.048-2.296v0l-1.242-0.158c-0.042-0.157-0.042-0.356 0-0.597v0c0.723-0.052 1.625-0.163 2.705-0.331v0c0.094 0.105 0.147 0.21 0.157 0.315v0c-0.052 0.273-0.079 2.197-0.078 5.772v0c0 0.734 0.087 1.255 0.261 1.563 0.172 0.31 0.494 0.466 0.966 0.466v0c0.881 0 1.678-0.524 2.39-1.573v0-3.177c0-1.185-0.016-1.945-0.047-2.28v0l-1.243-0.158c-0.042-0.157-0.042-0.356 0-0.597v0c0.629-0.042 1.505-0.152 2.627-0.331v0c0.094 0.105 0.147 0.21 0.157 0.315zM210.012 170.778v0c0.566 0 0.986-0.131 1.258-0.393 0.273-0.262 0.409-0.566 0.409-0.912v0c0-0.199-0.031-0.383-0.094-0.551-0.063-0.168-0.165-0.33-0.306-0.487-0.143-0.157-0.329-0.312-0.559-0.466-0.231-0.151-0.519-0.316-0.865-0.494v0c-0.43-0.22-0.799-0.43-1.108-0.629-0.31-0.199-0.565-0.409-0.764-0.629-0.199-0.22-0.349-0.456-0.45-0.708-0.099-0.252-0.148-0.535-0.148-0.849v0c0-0.377 0.068-0.706 0.205-0.985 0.136-0.277 0.327-0.507 0.572-0.692 0.247-0.182 0.539-0.319 0.875-0.408 0.336-0.088 0.708-0.132 1.116-0.133v0c0.818 0 1.615 0.199 2.391 0.598v0 2.013h-0.739l-0.346-1.698c-0.461-0.22-0.949-0.33-1.463-0.331v0c-0.86 0-1.29 0.351-1.29 1.054v0c0 0.377 0.142 0.723 0.425 1.038 0.283 0.315 0.739 0.629 1.368 0.944v0c0.43 0.22 0.807 0.43 1.133 0.629 0.325 0.199 0.596 0.409 0.811 0.629 0.214 0.22 0.376 0.458 0.488 0.714 0.109 0.258 0.164 0.549 0.163 0.874v0c0 0.367-0.079 0.708-0.235 1.023-0.157 0.315-0.377 0.584-0.661 0.808-0.283 0.226-0.624 0.406-1.022 0.538-0.398 0.13-0.839 0.195-1.321 0.195v0c-0.933 0-1.809-0.199-2.627-0.598v0-2.013h0.739l0.346 1.557c0.535 0.241 1.101 0.362 1.699 0.362z" fill="#ffffff" fill-rule="nonzero" stroke="none" stroke-width="1" stroke-linecap="butt" stroke-linejoin="miter" stroke-miterlimit="10" stroke-dasharray="" stroke-dashoffset="0" font-family="none" font-weight="none" font-size="none" text-anchor="none" style="mix-blend-mode: normal" data-fill-palette-color="secondary" id="text-1"></path></g></g><g transform="matrix(1,0,0,1,29.33176499999999,30.348450070656686)"><svg viewBox="0 0 316.416 31.91338985868662" height="31.91338985868662" width="316.416"><g><svg viewBox="0 0 316.416 31.91338985868662" height="31.91338985868662" width="316.416"><g><svg viewBox="0 0 316.416 31.91338985868662" height="31.91338985868662" width="316.416"><g><svg viewBox="0 0 316.416 31.91338985868662" height="31.91338985868662" width="316.416"><g id="textblocktransform"><svg viewBox="0 0 316.416 31.91338985868662" height="31.91338985868662" width="316.416" id="textblock"><g><svg viewBox="0 0 316.416 31.91338985868662" height="31.91338985868662" width="316.416"><g transform="matrix(1,0,0,1,0,0)"><svg width="316.416" viewBox="4 -35.7 360.87 36.400000000000006" height="31.91338985868662" data-palette-color="#ffffff"><g transform="matrix(1,0,0,1,0,0)"><g><svg width="7.7" viewBox="4.42 -27.11 25.14 25.14" height="7.7" data-palette-color="#ffffff" id="scriptelement" x="357.17" y="-35.7"><path d="M20.17-1.97L13.81-1.97 13.81-27.11 20.17-27.11 20.17-1.97ZM29.56-11.36L4.42-11.36 4.42-17.72 29.56-17.72 29.56-11.36Z" opacity="1" transform="matrix(1,0,0,1,0,0)" fill="#ffffff" class="undefined-123" data-fill-palette-color="primary" id="tk-123"></path></svg></g></g><path d="M33.2-16.6L23.95-16.6 23.95-17.8 36.6-17.8 36.6-4.2Q34.3-1.9 30.98-0.6 27.65 0.7 23.55 0.7L23.55 0.7Q19.35 0.7 15.8-0.68 12.25-2.05 9.6-4.53 6.95-7 5.48-10.3 4-13.6 4-17.5L4-17.5Q4-21.4 5.48-24.7 6.95-28 9.6-30.48 12.25-32.95 15.8-34.33 19.35-35.7 23.55-35.7L23.55-35.7Q25.35-35.7 27.48-35.45 29.6-35.2 31.55-34.77 33.5-34.35 34.85-33.75L34.85-33.75 34.6-30.95 34.3-30.95Q32.3-32.7 29.5-33.6 26.7-34.5 23.55-34.5L23.55-34.5Q18.85-34.5 15.3-32.38 11.75-30.25 9.78-26.43 7.8-22.6 7.8-17.5L7.8-17.5Q7.8-12.4 9.78-8.58 11.75-4.75 15.3-2.63 18.85-0.5 23.55-0.5L23.55-0.5Q26.45-0.5 28.93-1.3 31.4-2.1 33.2-3.6L33.2-3.6 33.2-16.6ZM48.1 0L48.1-35 51.5-35 51.5-1Q52.45-1 54.5-1.3L54.5-1.3 62.8-2.55 62.8 0 48.1 0ZM67.15-17.5L67.15-17.5Q67.15-21.35 68.52-24.68 69.9-28 72.37-30.48 74.85-32.95 78.17-34.33 81.5-35.7 85.35-35.7L85.35-35.7Q89.2-35.7 92.52-34.33 95.85-32.95 98.32-30.48 100.8-28 102.17-24.68 103.55-21.35 103.55-17.5L103.55-17.5Q103.55-13.65 102.17-10.33 100.8-7 98.32-4.53 95.85-2.05 92.52-0.68 89.2 0.7 85.35 0.7L85.35 0.7Q81.5 0.7 78.17-0.68 74.85-2.05 72.37-4.53 69.9-7 68.52-10.33 67.15-13.65 67.15-17.5ZM70.95-17.5L70.95-17.5Q70.95-12.4 72.75-8.58 74.55-4.75 77.8-2.63 81.05-0.5 85.35-0.5L85.35-0.5Q89.65-0.5 92.9-2.63 96.15-4.75 97.95-8.6 99.75-12.45 99.75-17.5L99.75-17.5Q99.75-22.55 97.95-26.38 96.15-30.2 92.9-32.35 89.65-34.5 85.35-34.5L85.35-34.5Q81.05-34.5 77.82-32.38 74.6-30.25 72.77-26.43 70.95-22.6 70.95-17.5ZM122.14 0L114.04 0 114.04-35 120.99-35Q126.39-35 129.39-32.75 132.39-30.5 132.39-26.5L132.39-26.5Q132.39-23.55 130.64-21.48 128.89-19.4 125.74-18.65L125.74-18.65 125.74-18.35Q130.04-17.8 132.47-15.38 134.89-12.95 134.89-9.25L134.89-9.25Q134.89-4.9 131.54-2.45 128.19 0 122.14 0L122.14 0ZM121.04-33.8L121.04-33.8 117.44-33.8 117.44-18.8 120.99-18.8Q128.89-18.8 128.89-26.3L128.89-26.3Q128.89-33.8 121.04-33.8ZM122.14-17.6L122.14-17.6 117.44-17.6 117.44-1.2 122.14-1.2Q131.29-1.2 131.29-9.4L131.29-9.4Q131.29-17.6 122.14-17.6ZM143.34 0L139.69 0 153.14-35 156.24-35 169.69 0 166.04 0 159.84-16.4 148.49-16.4 143.34 0ZM153.79-32.4L153.49-32.4 148.84-17.6 159.39-17.6 153.79-32.4ZM177.79 0L177.79-35 181.19-35 181.19-1Q182.14-1 184.19-1.3L184.19-1.3 192.49-2.55 192.49 0 177.79 0ZM209.74 0L206.34 0 206.34-34Q205.59-34 203.24-33.7L203.24-33.7 193.44-32.45 193.44-35 222.64-35 222.64-32.45 212.84-33.7Q210.49-34 209.74-34L209.74-34 209.74 0ZM230.73 0L230.73-35 237.43-35Q242.73-35 245.66-32.77 248.58-30.55 248.58-26.55L248.58-26.55Q248.58-23.45 246.76-21.4 244.93-19.35 241.48-18.65L241.48-18.65 241.48-18.35Q244.78-17.7 246.88-15.25 248.98-12.8 250.03-9.2L250.03-9.2Q250.98-5.9 251.91-4.08 252.83-2.25 253.96-1.45 255.08-0.65 256.63-0.3L256.63-0.3 256.63 0 254.58 0Q252.38 0 250.96-0.8 249.53-1.6 248.53-3.5 247.53-5.4 246.63-8.75L246.63-8.75Q245.18-13.9 242.78-16.05 240.38-18.2 236.93-18.2L236.93-18.2 236.63-18.2 236.63-19.1 236.93-19.1Q244.98-19.1 244.98-26.5L244.98-26.5Q244.98-33.8 237.43-33.8L237.43-33.8 234.13-33.8 234.13 0 230.73 0ZM262.78 0L259.13 0 272.58-35 275.68-35 289.13 0 285.48 0 279.28-16.4 267.93-16.4 262.78 0ZM273.23-32.4L272.93-32.4 268.28-17.6 278.83-17.6 273.23-32.4ZM308.23 0L297.23 0 297.23-35 308.23-35Q314.03-35 318.33-32.8 322.63-30.6 325.03-26.68 327.43-22.75 327.43-17.5L327.43-17.5Q327.43-12.25 325.03-8.33 322.63-4.4 318.33-2.2 314.03 0 308.23 0L308.23 0ZM308.23-33.8L308.23-33.8 300.63-33.8 300.63-1.2 308.23-1.2Q315.48-1.2 319.55-5.5 323.63-9.8 323.63-17.5L323.63-17.5Q323.63-25.2 319.55-29.5 315.48-33.8 308.23-33.8ZM353.32 0L337.93 0 337.93-35 353.18-35 353.18-32.55 344.43-33.7Q342.13-34 341.32-34L341.32-34 341.32-18.75Q341.98-18.75 344.43-18.9L344.43-18.9 352.63-19.4 352.63-17.1 344.43-17.6Q341.98-17.75 341.32-17.75L341.32-17.75 341.32-1Q342.23-1 344.48-1.3L344.48-1.3 353.32-2.45 353.32 0Z" opacity="1" transform="matrix(1,0,0,1,0,0)" fill="#ffffff" class="wordmark-text-0" data-fill-palette-color="primary" id="text-0"></path></svg></g></svg></g></svg></g></svg></g></svg></g></svg></g></svg></g></svg></g><defs></defs></svg><rect width="375.07953" height="92.61028999999999" fill="none" stroke="none" visibility="hidden"></rect></g></svg></g></svg>